<svg width="2400" height="1223" viewBox="0 0 2400 1223" fill="none" xmlns="http://www.w3.org/2000/svg">
<mask id="mask0" mask-type="alpha" maskUnits="userSpaceOnUse" x="7" y="8" width="2386" height="1210">
<mask id="path-2-inside-1" mask-type="luminance" fill="white">
<path d="M2371.01 19.8409C2285.21 -3.48105 2181.32 13.8249 2097.77 39.4174C1938.19 90.6116 1801.96 199.007 1653.67 276.535C1575.38 309.654 1467.72 316.43 1395.47 271.261C1378.16 258.976 1346.8 267.751 1346.8 267.751C1336.77 260.233 1325.52 257.366 1311.92 262.224C1275.79 288.585 1238.14 247.93 1199.78 269.009C1161.4 247.93 1123.77 288.585 1087.64 262.224C1074.02 257.366 1062.79 260.233 1052.75 267.751C1052.75 267.751 1021.37 258.976 1004.07 271.261C931.821 316.43 824.178 309.654 745.89 276.535C597.582 199.007 461.361 90.6116 301.782 39.4174C218.229 13.8249 114.339 -3.48105 28.5336 19.8409C17.2437 27.3675 4.43397 40.9282 7.44644 57.4833C13.4714 67.2716 19.5052 80.8233 32.2968 83.085C339.424 37.1649 505.01 342.023 762.454 422.564C762.951 425.83 747.898 438.368 731.578 447.152C695.202 467.236 641.249 459.446 637.495 509.13C647.274 540.006 684.908 551.296 712.011 563.327C775.996 599.486 852.792 569.37 910.734 540.006C917.501 533.221 928.8 536.984 934.056 543.769C929.542 683.04 1035.68 775.631 1055.25 905.095C1066.55 965.318 1028.91 1009.71 1024.39 1066.18C1023.9 1087.01 1040.2 1073.22 1048.98 1142.2C1052.75 1154.75 1084.12 1189.89 1112.47 1204.68C1138.64 1214.99 1168.97 1218 1199.78 1217.19C1230.57 1218 1260.9 1214.99 1287.08 1204.68C1315.43 1189.89 1346.8 1154.75 1350.54 1142.2C1359.35 1073.22 1375.65 1087.01 1375.15 1066.18C1370.63 1009.71 1333 965.318 1344.29 905.095C1363.86 775.631 1469.99 683.04 1465.47 543.769C1470.75 536.984 1482.05 533.221 1488.82 540.006C1546.76 569.37 1623.54 599.486 1687.54 563.327C1714.64 551.296 1752.27 540.006 1762.06 509.13C1758.29 459.446 1704.33 467.236 1667.98 447.152C1651.65 438.368 1636.59 425.83 1637.08 422.564C1894.54 342.023 2060.14 37.1649 2367.26 83.085C2380.05 80.8233 2386.07 67.2716 2392.08 57.4833C2395 40.9463 2382.22 27.3856 2370.93 19.8589"/>
</mask>
<path d="M2371.01 19.8409C2285.21 -3.48105 2181.32 13.8249 2097.77 39.4174C1938.19 90.6116 1801.96 199.007 1653.67 276.535C1575.38 309.654 1467.72 316.43 1395.47 271.261C1378.16 258.976 1346.8 267.751 1346.8 267.751C1336.77 260.233 1325.52 257.366 1311.92 262.224C1275.79 288.585 1238.14 247.93 1199.78 269.009C1161.4 247.93 1123.77 288.585 1087.64 262.224C1074.02 257.366 1062.79 260.233 1052.75 267.751C1052.75 267.751 1021.37 258.976 1004.07 271.261C931.821 316.43 824.178 309.654 745.89 276.535C597.582 199.007 461.361 90.6116 301.782 39.4174C218.229 13.8249 114.339 -3.48105 28.5336 19.8409C17.2437 27.3675 4.43397 40.9282 7.44644 57.4833C13.4714 67.2716 19.5052 80.8233 32.2968 83.085C339.424 37.1649 505.01 342.023 762.454 422.564C762.951 425.83 747.898 438.368 731.578 447.152C695.202 467.236 641.249 459.446 637.495 509.13C647.274 540.006 684.908 551.296 712.011 563.327C775.996 599.486 852.792 569.37 910.734 540.006C917.501 533.221 928.8 536.984 934.056 543.769C929.542 683.04 1035.68 775.631 1055.25 905.095C1066.55 965.318 1028.91 1009.71 1024.39 1066.18C1023.9 1087.01 1040.2 1073.22 1048.98 1142.2C1052.75 1154.75 1084.12 1189.89 1112.47 1204.68C1138.64 1214.99 1168.97 1218 1199.78 1217.19C1230.57 1218 1260.9 1214.99 1287.08 1204.68C1315.43 1189.89 1346.8 1154.75 1350.54 1142.2C1359.35 1073.22 1375.65 1087.01 1375.15 1066.18C1370.63 1009.71 1333 965.318 1344.29 905.095C1363.86 775.631 1469.99 683.04 1465.47 543.769C1470.75 536.984 1482.05 533.221 1488.82 540.006C1546.76 569.37 1623.54 599.486 1687.54 563.327C1714.64 551.296 1752.27 540.006 1762.06 509.13C1758.29 459.446 1704.33 467.236 1667.98 447.152C1651.65 438.368 1636.59 425.83 1637.08 422.564C1894.54 342.023 2060.14 37.1649 2367.26 83.085C2380.05 80.8233 2386.07 67.2716 2392.08 57.4833C2395 40.9463 2382.22 27.3856 2370.93 19.8589" fill="white"/>
<path d="M2097.77 39.4174L2093.19 25.1344L2093.28 25.1043L2093.38 25.0753L2097.77 39.4174ZM1653.67 276.535L1660.62 289.828L1660.08 290.112L1659.52 290.35L1653.67 276.535ZM1395.47 271.261L1387.52 283.98L1387.15 283.747L1386.79 283.493L1395.47 271.261ZM1346.8 267.751L1350.84 282.196L1343.72 284.188L1337.81 279.755L1346.8 267.751ZM1311.92 262.224L1303.08 250.106L1304.83 248.827L1306.87 248.097L1311.92 262.224ZM1199.78 269.009L1207 282.155L1199.78 286.123L1192.56 282.156L1199.78 269.009ZM1087.64 262.224L1092.68 248.096L1094.72 248.826L1096.48 250.106L1087.64 262.224ZM1052.75 267.751L1061.75 279.755L1055.83 284.188L1048.71 282.197L1052.75 267.751ZM1004.07 271.261L1012.75 283.493L1012.39 283.747L1012.02 283.98L1004.07 271.261ZM745.89 276.535L740.046 290.35L739.482 290.112L738.941 289.829L745.89 276.535ZM301.782 39.4174L306.175 25.0752L306.269 25.1042L306.364 25.1344L301.782 39.4174ZM28.5336 19.8409L20.2131 7.36009L22.244 6.00618L24.5994 5.366L28.5336 19.8409ZM7.44644 57.4833L-5.32764 65.346L-6.80623 62.9438L-7.31122 60.1687L7.44644 57.4833ZM32.2968 83.085L34.5149 97.9201L32.0949 98.2819L29.6853 97.8559L32.2968 83.085ZM762.454 422.564L766.932 408.248L775.872 411.045L777.283 420.305L762.454 422.564ZM731.578 447.152L724.328 434.021L724.398 433.982L724.469 433.944L731.578 447.152ZM637.495 509.13L623.195 513.659L622.319 510.893L622.538 508L637.495 509.13ZM712.011 563.327L718.097 549.618L718.759 549.912L719.391 550.268L712.011 563.327ZM910.734 540.006L921.355 550.598L919.658 552.299L917.515 553.385L910.734 540.006ZM934.056 543.769L945.914 534.583L949.223 538.854L949.048 544.255L934.056 543.769ZM1055.25 905.095L1040.51 907.861L1040.46 907.6L1040.42 907.337L1055.25 905.095ZM1024.39 1066.18L1009.4 1065.82L1009.41 1065.4L1009.44 1064.98L1024.39 1066.18ZM1048.98 1142.2L1034.62 1146.52L1034.26 1145.33L1034.1 1144.1L1048.98 1142.2ZM1112.47 1204.68L1106.97 1218.63L1106.23 1218.34L1105.53 1217.98L1112.47 1204.68ZM1199.78 1217.19L1199.39 1202.2L1199.78 1202.19L1200.17 1202.2L1199.78 1217.19ZM1287.08 1204.68L1294.01 1217.98L1293.31 1218.34L1292.57 1218.63L1287.08 1204.68ZM1350.54 1142.2L1365.42 1144.1L1365.26 1145.31L1364.91 1146.48L1350.54 1142.2ZM1375.15 1066.18L1390.1 1064.98L1390.14 1065.4L1390.15 1065.82L1375.15 1066.18ZM1344.29 905.095L1359.12 907.338L1359.08 907.599L1359.03 907.859L1344.29 905.095ZM1465.47 543.769L1450.48 544.256L1450.3 538.834L1453.64 534.553L1465.47 543.769ZM1488.82 540.006L1482.04 553.385L1479.9 552.299L1478.2 550.598L1488.82 540.006ZM1687.54 563.327L1680.17 550.268L1680.79 549.912L1681.46 549.618L1687.54 563.327ZM1762.06 509.13L1777.02 507.994L1777.24 510.892L1776.36 513.663L1762.06 509.13ZM1667.98 447.152L1675.08 433.942L1675.16 433.982L1675.23 434.022L1667.98 447.152ZM1637.08 422.564L1622.25 420.345L1623.64 411.053L1632.6 408.248L1637.08 422.564ZM2367.26 83.085L2369.87 97.8559L2367.46 98.2819L2365.04 97.92L2367.26 83.085ZM2392.08 57.4833L2406.85 60.0932L2406.36 62.8998L2404.87 65.3288L2392.08 57.4833ZM2367.08 34.3156C2285.42 12.1187 2184.85 28.4297 2102.17 53.7596L2093.38 25.0753C2177.78 -0.779785 2285.01 -19.0808 2374.95 5.36607L2367.08 34.3156ZM2102.35 53.7005C2024.22 78.7656 1951.45 117.954 1879.16 160.99C1807.37 203.736 1735.24 250.817 1660.62 289.828L1646.72 263.242C1720.4 224.725 1790.53 178.844 1863.82 135.212C1936.61 91.8699 2011.74 51.2635 2093.19 25.1344L2102.35 53.7005ZM1659.52 290.35C1578.59 324.584 1465.38 332.656 1387.52 283.98L1403.42 258.542C1470.07 300.205 1572.17 294.725 1647.83 262.72L1659.52 290.35ZM1386.79 283.493C1382.54 280.478 1374.85 279.26 1365.63 279.867C1361.43 280.143 1357.62 280.749 1354.86 281.291C1353.5 281.559 1352.42 281.806 1351.71 281.976C1351.36 282.061 1351.11 282.127 1350.96 282.166C1350.88 282.186 1350.83 282.199 1350.81 282.204C1350.8 282.207 1350.8 282.207 1350.81 282.206C1350.81 282.206 1350.81 282.204 1350.82 282.203C1350.82 282.202 1350.82 282.201 1350.83 282.2C1350.83 282.199 1350.83 282.199 1350.83 282.198C1350.84 282.197 1350.84 282.196 1346.8 267.751C1342.76 253.306 1342.76 253.305 1342.77 253.304C1342.77 253.303 1342.77 253.302 1342.77 253.301C1342.78 253.3 1342.79 253.298 1342.79 253.296C1342.81 253.292 1342.82 253.288 1342.84 253.283C1342.87 253.274 1342.92 253.262 1342.97 253.249C1343.07 253.222 1343.2 253.187 1343.36 253.145C1343.67 253.062 1344.11 252.951 1344.65 252.82C1345.73 252.558 1347.24 252.215 1349.08 251.853C1352.74 251.134 1357.86 250.313 1363.66 249.932C1374.45 249.222 1391.09 249.759 1404.15 259.03L1386.79 283.493ZM1337.81 279.755C1331.24 274.836 1325.2 273.407 1316.96 276.35L1306.87 248.097C1325.84 241.325 1342.29 245.631 1355.79 255.747L1337.81 279.755ZM1320.76 274.341C1296.65 291.928 1271.74 286.38 1253.38 282.228C1233.43 277.716 1220.36 274.816 1207 282.155L1192.55 255.862C1217.56 242.123 1242.5 249.011 1259.99 252.967C1279.08 257.282 1291.05 258.881 1303.08 250.106L1320.76 274.341ZM1192.56 282.156C1179.19 274.815 1166.12 277.717 1146.17 282.228C1127.81 286.38 1102.9 291.928 1078.8 274.341L1096.48 250.106C1108.51 258.881 1120.47 257.282 1139.56 252.967C1157.05 249.011 1181.99 242.124 1207 255.861L1192.56 282.156ZM1082.6 276.351C1074.34 273.406 1068.31 274.836 1061.75 279.755L1043.76 255.747C1057.26 245.631 1073.7 241.326 1092.68 248.096L1082.6 276.351ZM1052.75 267.751C1048.71 282.197 1048.72 282.198 1048.72 282.199C1048.72 282.199 1048.73 282.2 1048.73 282.201C1048.73 282.202 1048.74 282.203 1048.74 282.203C1048.74 282.205 1048.75 282.206 1048.75 282.207C1048.75 282.208 1048.75 282.207 1048.74 282.204C1048.72 282.199 1048.67 282.186 1048.6 282.167C1048.45 282.127 1048.19 282.062 1047.84 281.977C1047.14 281.806 1046.06 281.56 1044.69 281.291C1041.93 280.749 1038.12 280.143 1033.92 279.867C1024.69 279.26 1017 280.478 1012.75 283.493L995.383 259.03C1008.44 249.759 1025.09 249.222 1035.88 249.932C1041.69 250.313 1046.81 251.134 1050.47 251.853C1052.31 252.215 1053.82 252.558 1054.9 252.819C1055.44 252.95 1055.88 253.061 1056.2 253.144C1056.36 253.186 1056.49 253.221 1056.59 253.248C1056.64 253.262 1056.68 253.273 1056.71 253.283C1056.73 253.288 1056.75 253.292 1056.76 253.296C1056.77 253.298 1056.77 253.299 1056.78 253.301C1056.78 253.302 1056.78 253.303 1056.79 253.303C1056.79 253.304 1056.79 253.305 1052.75 267.751ZM1012.02 283.98C934.164 332.656 820.968 324.584 740.046 290.35L751.734 262.721C827.387 294.725 929.479 300.204 996.114 258.542L1012.02 283.98ZM738.941 289.829C664.314 250.817 592.187 203.736 520.389 160.99C448.105 117.954 375.331 78.7656 297.2 53.7005L306.364 25.1344C387.812 51.2635 462.938 91.87 535.736 135.212C609.021 178.844 679.158 224.725 752.839 263.242L738.941 289.829ZM297.389 53.7598C214.692 28.4297 114.135 12.1186 32.4679 34.3157L24.5994 5.366C114.543 -19.0807 221.765 -0.779785 306.175 25.0752L297.389 53.7598ZM36.8542 32.3216C32.3171 35.3463 27.9533 39.2981 25.1342 43.5565C22.4187 47.6585 21.5676 51.3001 22.2041 54.7979L-7.31122 60.1687C-9.68723 47.1113 -5.63964 35.6951 0.119057 26.9962C5.77419 18.4539 13.4603 11.862 20.2131 7.36009L36.8542 32.3216ZM20.2205 49.6205C24.0701 55.8747 25.9591 59.8207 29.1112 63.8168C31.8202 67.2511 33.5993 68.0826 34.9084 68.3141L29.6853 97.8559C18.2027 95.8257 10.5691 88.7505 5.55701 82.3964C0.988097 76.6042 -3.15231 68.8802 -5.32764 65.346L20.2205 49.6205ZM30.0788 68.2498C189.674 44.3881 312.014 112.119 424.766 193.225C452.952 213.5 480.747 234.77 508.338 255.698C536.005 276.682 563.519 297.363 591.494 316.757C647.468 355.564 704.653 388.764 766.932 408.248L757.975 436.88C691.533 416.093 631.478 380.983 574.401 341.412C545.85 321.617 517.886 300.592 490.209 279.6C462.457 258.551 435.045 237.574 407.247 217.578C296.063 137.6 182.047 75.8618 34.5149 97.9201L30.0788 68.2498ZM777.283 420.305C778.177 426.175 775.542 430.658 774.866 431.807C773.753 433.697 772.41 435.332 771.279 436.588C768.951 439.173 765.942 441.876 762.752 444.454C756.295 449.674 747.676 455.523 738.688 460.361L724.469 433.944C731.8 429.998 738.868 425.185 743.893 421.123C746.444 419.061 748.125 417.468 748.989 416.509C749.454 415.993 749.333 416.043 749.012 416.589C748.846 416.872 748.43 417.615 748.073 418.737C747.741 419.782 747.192 421.985 747.625 424.823L777.283 420.305ZM738.828 460.284C728.139 466.186 716.547 469.837 706.111 472.765C695.09 475.856 685.985 478.006 677.46 481.127C669.187 484.155 663.46 487.455 659.612 491.564C656.075 495.34 653.166 500.817 652.453 510.26L622.538 508C623.701 492.601 628.945 480.42 637.717 471.055C646.177 462.024 656.916 456.7 667.147 452.955C677.127 449.302 688.565 446.529 698.008 443.88C708.037 441.067 716.83 438.161 724.328 434.021L738.828 460.284ZM651.795 504.601C655.063 514.918 663.225 522.987 675.82 530.342C688.899 537.979 703.133 542.975 718.097 549.618L705.925 577.037C693.786 571.648 675.651 564.983 660.693 556.248C645.25 547.231 629.707 534.217 623.195 513.659L651.795 504.601ZM719.391 550.268C747.312 566.047 778.575 567.759 810.783 561.512C843.148 555.235 875.347 541.123 903.953 526.626L917.515 553.385C888.179 568.253 853.008 583.882 816.495 590.963C779.823 598.076 740.695 596.766 704.631 576.387L719.391 550.268ZM900.113 529.413C907.931 521.574 918.087 520.388 926.148 522.141C933.915 523.83 941.125 528.401 945.914 534.583L922.198 552.955C922.039 552.75 921.688 552.395 921.144 552.052C920.603 551.711 920.103 551.527 919.775 551.456C919.449 551.385 919.534 551.472 919.948 551.374C920.164 551.323 920.429 551.229 920.707 551.076C920.989 550.921 921.208 550.745 921.355 550.598L900.113 529.413ZM949.048 544.255C946.922 609.849 970.737 664.891 999.035 721.392C1026.92 777.077 1059.85 835.176 1070.08 902.854L1040.42 907.337C1031.08 845.55 1001.16 792.621 972.211 734.827C943.674 677.848 916.676 616.959 919.064 543.283L949.048 544.255ZM1069.99 902.329C1076.37 936.312 1068.75 965.481 1059.98 991.788C1050.95 1018.87 1041.41 1041.51 1039.35 1067.37L1009.44 1064.98C1011.89 1034.38 1023.43 1006.58 1031.52 982.3C1039.88 957.238 1045.43 934.1 1040.51 907.861L1069.99 902.329ZM1039.39 1066.54C1039.35 1068.19 1039.49 1068.93 1039.54 1069.14C1039.57 1069.25 1039.58 1069.3 1039.72 1069.54C1039.99 1070 1040.4 1070.57 1041.56 1072.1C1042.61 1073.47 1044.13 1075.44 1045.74 1077.9C1052.6 1088.32 1059.32 1104.64 1063.86 1140.31L1034.1 1144.1C1029.86 1110.78 1024.04 1099.5 1020.67 1094.37C1019.73 1092.93 1018.83 1091.76 1017.72 1090.3C1016.71 1088.98 1015.19 1087.01 1013.86 1084.75C1010.63 1079.26 1009.22 1073.37 1009.4 1065.82L1039.39 1066.54ZM1063.35 1137.89C1063.34 1137.86 1063.6 1138.63 1064.6 1140.34C1065.52 1141.94 1066.84 1143.93 1068.56 1146.26C1072.01 1150.91 1076.72 1156.44 1082.27 1162.15C1093.52 1173.73 1107.18 1185 1119.41 1191.38L1105.53 1217.98C1089.41 1209.57 1073.21 1195.88 1060.75 1183.05C1054.44 1176.56 1048.83 1170.02 1044.45 1164.1C1040.39 1158.62 1036.36 1152.31 1034.62 1146.52L1063.35 1137.89ZM1117.97 1190.72C1141.53 1200.01 1169.61 1202.97 1199.39 1202.2L1200.17 1232.19C1168.33 1233.02 1135.75 1229.98 1106.97 1218.63L1117.97 1190.72ZM1200.17 1202.2C1229.93 1202.97 1258.02 1200.01 1281.58 1190.72L1292.57 1218.63C1263.79 1229.98 1231.21 1233.02 1199.39 1232.19L1200.17 1202.2ZM1280.14 1191.38C1292.37 1185 1306.03 1173.73 1317.28 1162.15C1322.83 1156.44 1327.53 1150.92 1330.97 1146.26C1332.69 1143.94 1334 1141.95 1334.92 1140.36C1335.92 1138.65 1336.17 1137.88 1336.16 1137.92L1364.91 1146.48C1363.18 1152.29 1359.15 1158.61 1355.09 1164.09C1350.71 1170.02 1345.1 1176.56 1338.8 1183.05C1326.34 1195.88 1310.13 1209.57 1294.01 1217.98L1280.14 1191.38ZM1335.66 1140.3C1340.21 1104.63 1346.94 1088.32 1353.8 1077.89C1355.41 1075.44 1356.93 1073.47 1357.98 1072.09C1359.15 1070.57 1359.56 1069.99 1359.82 1069.54C1359.97 1069.3 1359.98 1069.25 1360 1069.13C1360.05 1068.93 1360.2 1068.19 1360.16 1066.54L1390.15 1065.82C1390.33 1073.37 1388.91 1079.26 1385.68 1084.75C1384.35 1087.01 1382.83 1088.98 1381.83 1090.3C1380.71 1091.77 1379.81 1092.94 1378.87 1094.37C1375.5 1099.5 1369.67 1110.79 1365.42 1144.1L1335.66 1140.3ZM1360.2 1067.37C1358.13 1041.51 1348.59 1018.87 1339.56 991.788C1330.79 965.481 1323.17 936.313 1329.54 902.331L1359.03 907.859C1354.11 934.099 1359.66 957.238 1368.02 982.3C1376.11 1006.58 1387.65 1034.37 1390.1 1064.98L1360.2 1067.37ZM1329.45 902.852C1339.69 835.176 1372.62 777.077 1400.5 721.393C1428.8 664.892 1452.61 609.85 1450.48 544.256L1480.46 543.282C1482.86 616.958 1455.86 677.847 1427.33 734.826C1398.38 792.621 1368.46 845.55 1359.12 907.338L1329.45 902.852ZM1453.64 534.553C1458.43 528.394 1465.64 523.828 1473.41 522.14C1481.47 520.389 1491.62 521.573 1499.44 529.413L1478.2 550.598C1478.35 550.745 1478.57 550.921 1478.85 551.076C1479.13 551.23 1479.39 551.323 1479.61 551.374C1480.02 551.472 1480.1 551.385 1479.77 551.457C1479.44 551.529 1478.94 551.714 1478.39 552.059C1477.84 552.406 1477.48 552.768 1477.31 552.984L1453.64 534.553ZM1495.6 526.626C1524.21 541.123 1556.4 555.235 1588.77 561.512C1620.97 567.759 1652.23 566.048 1680.17 550.268L1694.92 576.387C1658.85 596.766 1619.72 598.076 1583.05 590.963C1546.54 583.881 1511.38 568.253 1482.04 553.385L1495.6 526.626ZM1681.46 549.618C1696.42 542.974 1710.65 537.98 1723.73 530.342C1736.32 522.987 1744.49 514.917 1747.76 504.597L1776.36 513.663C1769.84 534.218 1754.3 547.231 1738.85 556.248C1723.9 564.983 1705.76 571.649 1693.63 577.036L1681.46 549.618ZM1747.1 510.265C1746.39 500.822 1743.47 495.344 1739.93 491.566C1736.08 487.456 1730.35 484.155 1722.08 481.127C1713.56 478.006 1704.45 475.856 1693.43 472.764C1683 469.837 1671.41 466.185 1660.72 460.282L1675.23 434.022C1682.72 438.161 1691.51 441.067 1701.54 443.88C1710.98 446.529 1722.41 449.302 1732.39 452.955C1742.62 456.7 1753.36 462.023 1761.83 471.053C1770.6 480.416 1775.85 492.596 1777.02 507.994L1747.1 510.265ZM1660.87 460.362C1651.88 455.524 1643.25 449.675 1636.8 444.456C1633.6 441.878 1630.6 439.176 1628.27 436.593C1627.14 435.338 1625.79 433.706 1624.68 431.819C1624 430.674 1621.37 426.204 1622.25 420.345L1651.92 424.783C1652.34 421.949 1651.79 419.752 1651.46 418.714C1651.1 417.596 1650.68 416.857 1650.52 416.576C1650.2 416.035 1650.08 415.987 1650.55 416.504C1651.41 417.465 1653.1 419.059 1655.65 421.122C1660.68 425.184 1667.75 429.996 1675.08 433.942L1660.87 460.362ZM1632.6 408.248C1694.89 388.764 1752.07 355.564 1808.05 316.757C1836.03 297.363 1863.54 276.682 1891.21 255.697C1918.8 234.77 1946.6 213.5 1974.79 193.225C2087.54 112.119 2209.88 44.3881 2369.48 68.2498L2365.04 97.92C2217.51 75.8618 2103.49 137.6 1992.3 217.579C1964.51 237.574 1937.09 258.551 1909.34 279.6C1881.66 300.593 1853.7 321.618 1825.14 341.412C1768.06 380.983 1708 416.093 1641.56 436.88L1632.6 408.248ZM2364.65 68.3141C2365.95 68.083 2367.73 67.2534 2370.43 63.8234C2373.57 59.8351 2375.46 55.884 2379.3 49.6377L2404.87 65.3288C2402.69 68.8709 2398.57 76.5898 2394 82.3898C2388.99 88.7482 2381.35 95.8254 2369.87 97.8559L2364.65 68.3141ZM2377.31 54.8733C2377.93 51.3623 2377.06 47.6971 2374.33 43.5806C2371.5 39.3138 2367.14 35.36 2362.61 32.3396L2379.25 7.37817C2386.01 11.8845 2393.68 18.4744 2399.34 27.0039C2405.09 35.6836 2409.15 47.0673 2406.85 60.0932L2377.31 54.8733Z" fill="black" mask="url(#path-2-inside-1)"/>
</mask>
<g mask="url(#mask0)">
<path d="M1200 0H2400V611.475H1200V0Z" fill="white"/>
<path d="M1200 612H2400V1223.47H1200V612Z" fill="#B20931"/>
<path d="M0 0H1200V1223H0V0Z" fill="#003366"/>
<path d="M1072.5 524L1092.14 584.461H1155.72L1104.29 621.828L1123.93 682.289L1072.5 644.922L1021.07 682.289L1040.71 621.828L989.283 584.461H1052.86L1072.5 524Z" fill="white"/>
<mask id="path-8-inside-2" fill="white">
<path d="M2371.01 19.8409C2285.21 -3.48105 2181.32 13.8249 2097.77 39.4174C1938.19 90.6116 1801.96 199.007 1653.67 276.535C1575.38 309.654 1467.72 316.43 1395.47 271.261C1378.16 258.976 1346.8 267.751 1346.8 267.751C1336.77 260.233 1325.52 257.366 1311.92 262.224C1275.79 288.585 1238.14 247.93 1199.78 269.009C1161.4 247.93 1123.77 288.585 1087.64 262.224C1074.02 257.366 1062.79 260.233 1052.75 267.751C1052.75 267.751 1021.37 258.976 1004.07 271.261C931.821 316.43 824.178 309.654 745.89 276.535C597.582 199.007 461.361 90.6116 301.782 39.4174C218.229 13.8249 114.339 -3.48105 28.5336 19.8409C17.2437 27.3676 4.43397 40.9282 7.44644 57.4833C13.4714 67.2716 19.5052 80.8233 32.2968 83.085C339.424 37.1649 505.01 342.023 762.454 422.564C762.951 425.83 747.898 438.368 731.578 447.152C695.202 467.236 641.249 459.446 637.495 509.13C647.274 540.006 684.908 551.296 712.011 563.327C775.996 599.486 852.792 569.37 910.734 540.006C917.501 533.221 928.8 536.984 934.056 543.769C929.542 683.04 1035.68 775.631 1055.25 905.095C1066.55 965.318 1028.91 1009.71 1024.39 1066.18C1023.9 1087.01 1040.2 1073.22 1048.98 1142.2C1052.75 1154.75 1084.12 1189.89 1112.47 1204.68C1138.64 1214.99 1168.97 1218 1199.78 1217.19C1230.57 1218 1260.9 1214.99 1287.08 1204.68C1315.43 1189.89 1346.8 1154.75 1350.54 1142.2C1359.35 1073.22 1375.65 1087.01 1375.15 1066.18C1370.63 1009.71 1333 965.318 1344.29 905.095C1363.86 775.631 1469.99 683.04 1465.47 543.769C1470.75 536.984 1482.05 533.221 1488.82 540.006C1546.76 569.37 1623.54 599.486 1687.54 563.327C1714.64 551.296 1752.27 540.006 1762.06 509.13C1758.29 459.446 1704.33 467.236 1667.98 447.152C1651.65 438.368 1636.59 425.83 1637.08 422.564C1894.54 342.023 2060.14 37.1649 2367.26 83.085C2380.05 80.8233 2386.07 67.2716 2392.08 57.4833C2395 40.9463 2382.22 27.3857 2370.93 19.8589"/>
</mask>
<path d="M2097.77 39.4174L2093.19 25.1344L2093.28 25.1042L2093.38 25.0753L2097.77 39.4174ZM1653.67 276.535L1660.62 289.828L1660.08 290.112L1659.52 290.35L1653.67 276.535ZM1395.47 271.261L1387.52 283.98L1387.15 283.747L1386.79 283.493L1395.47 271.261ZM1346.8 267.751L1350.84 282.196L1343.72 284.188L1337.81 279.755L1346.8 267.751ZM1311.92 262.224L1303.08 250.106L1304.83 248.827L1306.87 248.097L1311.92 262.224ZM1199.78 269.009L1207 282.155L1199.78 286.123L1192.56 282.156L1199.78 269.009ZM1087.64 262.224L1092.68 248.096L1094.72 248.826L1096.48 250.106L1087.64 262.224ZM1052.75 267.751L1061.75 279.755L1055.83 284.188L1048.71 282.197L1052.75 267.751ZM1004.07 271.261L1012.75 283.493L1012.39 283.747L1012.02 283.98L1004.07 271.261ZM745.89 276.535L740.046 290.35L739.482 290.112L738.941 289.829L745.89 276.535ZM301.782 39.4174L306.175 25.0752L306.269 25.1042L306.364 25.1344L301.782 39.4174ZM28.5336 19.8409L20.2131 7.36017L22.244 6.00618L24.5994 5.366L28.5336 19.8409ZM7.44644 57.4833L-5.32764 65.3461L-6.80623 62.9439L-7.31122 60.1687L7.44644 57.4833ZM32.2968 83.085L34.5149 97.9201L32.0949 98.2819L29.6853 97.8559L32.2968 83.085ZM762.454 422.564L766.932 408.248L775.872 411.045L777.283 420.305L762.454 422.564ZM731.578 447.152L724.328 434.021L724.398 433.982L724.469 433.944L731.578 447.152ZM637.495 509.13L623.195 513.659L622.319 510.893L622.538 508L637.495 509.13ZM712.011 563.327L718.097 549.618L718.759 549.912L719.391 550.268L712.011 563.327ZM910.734 540.006L921.355 550.598L919.658 552.299L917.515 553.385L910.734 540.006ZM934.056 543.769L945.914 534.583L949.223 538.854L949.048 544.255L934.056 543.769ZM1055.25 905.095L1040.51 907.861L1040.46 907.6L1040.42 907.337L1055.25 905.095ZM1024.39 1066.18L1009.4 1065.82L1009.41 1065.4L1009.44 1064.98L1024.39 1066.18ZM1048.98 1142.2L1034.62 1146.52L1034.26 1145.33L1034.1 1144.1L1048.98 1142.2ZM1112.47 1204.68L1106.97 1218.63L1106.23 1218.34L1105.53 1217.98L1112.47 1204.68ZM1199.78 1217.19L1199.39 1202.2L1199.78 1202.19L1200.17 1202.2L1199.78 1217.19ZM1287.08 1204.68L1294.01 1217.98L1293.31 1218.34L1292.57 1218.63L1287.08 1204.68ZM1350.54 1142.2L1365.42 1144.1L1365.26 1145.31L1364.91 1146.48L1350.54 1142.2ZM1375.15 1066.18L1390.1 1064.98L1390.14 1065.4L1390.15 1065.82L1375.15 1066.18ZM1344.29 905.095L1359.12 907.338L1359.08 907.599L1359.03 907.859L1344.29 905.095ZM1465.47 543.769L1450.48 544.256L1450.3 538.834L1453.64 534.553L1465.47 543.769ZM1488.82 540.006L1482.04 553.385L1479.9 552.299L1478.2 550.598L1488.82 540.006ZM1687.54 563.327L1680.17 550.268L1680.79 549.912L1681.46 549.618L1687.54 563.327ZM1762.06 509.13L1777.02 507.994L1777.24 510.892L1776.36 513.663L1762.06 509.13ZM1667.98 447.152L1675.08 433.942L1675.16 433.982L1675.23 434.022L1667.98 447.152ZM1637.08 422.564L1622.25 420.345L1623.64 411.053L1632.6 408.248L1637.08 422.564ZM2367.26 83.085L2369.87 97.8559L2367.46 98.2819L2365.04 97.92L2367.26 83.085ZM2392.08 57.4833L2406.85 60.0933L2406.36 62.8998L2404.87 65.3289L2392.08 57.4833ZM2367.08 34.3157C2285.42 12.1187 2184.85 28.4296 2102.17 53.7596L2093.38 25.0753C2177.78 -0.779861 2285.01 -19.0807 2374.95 5.36607L2367.08 34.3157ZM2102.35 53.7004C2024.22 78.7656 1951.45 117.954 1879.16 160.99C1807.37 203.736 1735.24 250.817 1660.62 289.828L1646.72 263.242C1720.4 224.725 1790.53 178.844 1863.82 135.212C1936.61 91.8699 2011.74 51.2634 2093.19 25.1344L2102.35 53.7004ZM1659.52 290.35C1578.59 324.584 1465.38 332.656 1387.52 283.98L1403.42 258.542C1470.07 300.205 1572.17 294.725 1647.83 262.72L1659.52 290.35ZM1386.79 283.493C1382.54 280.478 1374.85 279.26 1365.63 279.867C1361.43 280.143 1357.62 280.749 1354.86 281.291C1353.5 281.559 1352.42 281.806 1351.71 281.976C1351.36 282.061 1351.11 282.127 1350.96 282.166C1350.88 282.186 1350.83 282.199 1350.81 282.204C1350.8 282.207 1350.8 282.207 1350.81 282.206C1350.81 282.206 1350.81 282.204 1350.82 282.203C1350.82 282.202 1350.82 282.201 1350.83 282.2C1350.83 282.199 1350.83 282.199 1350.83 282.198C1350.84 282.197 1350.84 282.196 1346.8 267.751C1342.76 253.306 1342.76 253.305 1342.77 253.304C1342.77 253.303 1342.77 253.302 1342.77 253.301C1342.78 253.3 1342.79 253.298 1342.79 253.296C1342.81 253.292 1342.82 253.288 1342.84 253.283C1342.87 253.274 1342.92 253.262 1342.97 253.249C1343.07 253.222 1343.2 253.187 1343.36 253.145C1343.67 253.062 1344.11 252.951 1344.65 252.82C1345.73 252.558 1347.24 252.215 1349.08 251.853C1352.74 251.134 1357.86 250.313 1363.66 249.932C1374.45 249.222 1391.09 249.759 1404.15 259.03L1386.79 283.493ZM1337.81 279.755C1331.24 274.836 1325.2 273.407 1316.96 276.35L1306.87 248.097C1325.84 241.325 1342.29 245.631 1355.79 255.747L1337.81 279.755ZM1320.76 274.341C1296.65 291.928 1271.74 286.38 1253.38 282.228C1233.43 277.716 1220.36 274.816 1207 282.155L1192.55 255.862C1217.56 242.123 1242.5 249.011 1259.99 252.967C1279.08 257.282 1291.05 258.881 1303.08 250.106L1320.76 274.341ZM1192.56 282.156C1179.19 274.815 1166.12 277.717 1146.17 282.228C1127.81 286.38 1102.9 291.928 1078.8 274.341L1096.48 250.106C1108.51 258.881 1120.47 257.282 1139.56 252.967C1157.05 249.011 1181.99 242.124 1207 255.861L1192.56 282.156ZM1082.6 276.351C1074.34 273.406 1068.31 274.836 1061.75 279.755L1043.76 255.747C1057.26 245.631 1073.7 241.326 1092.68 248.096L1082.6 276.351ZM1052.75 267.751C1048.71 282.197 1048.72 282.198 1048.72 282.199C1048.72 282.199 1048.73 282.2 1048.73 282.201C1048.73 282.202 1048.74 282.203 1048.74 282.203C1048.74 282.205 1048.75 282.206 1048.75 282.207C1048.75 282.208 1048.75 282.207 1048.74 282.204C1048.72 282.199 1048.67 282.186 1048.6 282.167C1048.45 282.127 1048.19 282.062 1047.84 281.977C1047.14 281.806 1046.06 281.56 1044.69 281.291C1041.93 280.749 1038.12 280.143 1033.92 279.867C1024.69 279.26 1017 280.478 1012.75 283.493L995.383 259.03C1008.44 249.759 1025.09 249.222 1035.88 249.932C1041.69 250.313 1046.81 251.134 1050.47 251.853C1052.31 252.215 1053.82 252.558 1054.9 252.819C1055.44 252.95 1055.88 253.061 1056.2 253.144C1056.36 253.186 1056.49 253.221 1056.59 253.248C1056.64 253.262 1056.68 253.273 1056.71 253.283C1056.73 253.288 1056.75 253.292 1056.76 253.296C1056.77 253.298 1056.77 253.299 1056.78 253.301C1056.78 253.302 1056.78 253.303 1056.79 253.303C1056.79 253.304 1056.79 253.305 1052.75 267.751ZM1012.02 283.98C934.164 332.656 820.968 324.584 740.046 290.35L751.734 262.721C827.387 294.725 929.479 300.204 996.114 258.542L1012.02 283.98ZM738.941 289.829C664.314 250.817 592.187 203.736 520.389 160.99C448.105 117.954 375.331 78.7655 297.2 53.7004L306.364 25.1344C387.812 51.2635 462.938 91.87 535.736 135.212C609.021 178.844 679.158 224.725 752.839 263.242L738.941 289.829ZM297.389 53.7597C214.692 28.4296 114.135 12.1186 32.4679 34.3157L24.5994 5.366C114.543 -19.0806 221.765 -0.779861 306.175 25.0752L297.389 53.7597ZM36.8542 32.3216C32.3171 35.3464 27.9533 39.2982 25.1342 43.5565C22.4187 47.6585 21.5676 51.3002 22.2041 54.7979L-7.31122 60.1687C-9.68723 47.1113 -5.63964 35.6951 0.119056 26.9963C5.77419 18.4539 13.4603 11.862 20.2131 7.36017L36.8542 32.3216ZM20.2205 49.6205C24.0701 55.8747 25.9591 59.8207 29.1112 63.8168C31.8202 67.2511 33.5993 68.0826 34.9084 68.3141L29.6853 97.8559C18.2027 95.8257 10.5691 88.7505 5.55701 82.3964C0.988097 76.6042 -3.1523 68.8802 -5.32764 65.3461L20.2205 49.6205ZM30.0788 68.2498C189.674 44.3881 312.014 112.119 424.766 193.225C452.952 213.5 480.747 234.77 508.338 255.698C536.005 276.682 563.519 297.363 591.494 316.757C647.468 355.564 704.652 388.764 766.932 408.248L757.975 436.88C691.533 416.093 631.478 380.983 574.401 341.412C545.85 321.617 517.886 300.592 490.209 279.6C462.457 258.551 435.045 237.574 407.247 217.578C296.063 137.6 182.047 75.8618 34.5149 97.9201L30.0788 68.2498ZM777.283 420.305C778.177 426.175 775.542 430.658 774.866 431.807C773.753 433.697 772.41 435.332 771.279 436.588C768.951 439.173 765.942 441.876 762.752 444.454C756.295 449.674 747.676 455.523 738.688 460.361L724.469 433.944C731.8 429.998 738.868 425.185 743.893 421.123C746.444 419.061 748.125 417.468 748.989 416.509C749.454 415.993 749.333 416.043 749.012 416.589C748.846 416.872 748.43 417.615 748.073 418.737C747.741 419.782 747.192 421.985 747.625 424.823L777.283 420.305ZM738.828 460.284C728.139 466.186 716.547 469.837 706.111 472.765C695.09 475.856 685.985 478.006 677.46 481.127C669.187 484.155 663.46 487.455 659.612 491.564C656.075 495.34 653.166 500.817 652.453 510.26L622.538 508C623.701 492.601 628.945 480.42 637.717 471.055C646.177 462.024 656.916 456.7 667.147 452.955C677.127 449.302 688.565 446.529 698.008 443.88C708.037 441.067 716.83 438.161 724.328 434.021L738.828 460.284ZM651.795 504.601C655.063 514.918 663.225 522.987 675.82 530.342C688.899 537.979 703.133 542.975 718.097 549.618L705.925 577.037C693.786 571.648 675.651 564.983 660.693 556.248C645.25 547.231 629.707 534.217 623.195 513.659L651.795 504.601ZM719.391 550.268C747.312 566.047 778.575 567.759 810.783 561.512C843.148 555.235 875.347 541.123 903.953 526.626L917.515 553.385C888.179 568.253 853.009 583.881 816.495 590.963C779.823 598.076 740.695 596.766 704.631 576.386L719.391 550.268ZM900.113 529.413C907.931 521.574 918.087 520.388 926.148 522.141C933.915 523.829 941.125 528.401 945.914 534.583L922.198 552.955C922.039 552.75 921.688 552.395 921.144 552.052C920.603 551.711 920.103 551.527 919.775 551.456C919.449 551.385 919.534 551.472 919.948 551.374C920.164 551.323 920.429 551.229 920.707 551.076C920.989 550.921 921.208 550.745 921.355 550.598L900.113 529.413ZM949.048 544.255C946.922 609.849 970.737 664.891 999.035 721.392C1026.92 777.077 1059.85 835.176 1070.08 902.854L1040.42 907.337C1031.08 845.55 1001.16 792.621 972.211 734.827C943.674 677.848 916.676 616.959 919.064 543.283L949.048 544.255ZM1069.99 902.329C1076.37 936.312 1068.75 965.481 1059.98 991.788C1050.95 1018.87 1041.41 1041.51 1039.35 1067.37L1009.44 1064.98C1011.89 1034.38 1023.43 1006.58 1031.52 982.3C1039.88 957.238 1045.43 934.1 1040.51 907.861L1069.99 902.329ZM1039.39 1066.54C1039.35 1068.19 1039.49 1068.93 1039.54 1069.14C1039.57 1069.25 1039.58 1069.3 1039.72 1069.54C1039.99 1070 1040.4 1070.57 1041.56 1072.1C1042.61 1073.47 1044.13 1075.44 1045.74 1077.9C1052.6 1088.33 1059.32 1104.64 1063.86 1140.31L1034.1 1144.1C1029.86 1110.78 1024.04 1099.5 1020.67 1094.37C1019.73 1092.93 1018.83 1091.76 1017.72 1090.3C1016.71 1088.98 1015.19 1087.01 1013.86 1084.75C1010.63 1079.26 1009.22 1073.37 1009.4 1065.82L1039.39 1066.54ZM1063.35 1137.89C1063.34 1137.86 1063.6 1138.63 1064.6 1140.34C1065.52 1141.94 1066.84 1143.93 1068.56 1146.26C1072.01 1150.91 1076.72 1156.44 1082.27 1162.15C1093.52 1173.73 1107.18 1185 1119.41 1191.38L1105.53 1217.98C1089.41 1209.57 1073.21 1195.88 1060.75 1183.05C1054.44 1176.56 1048.83 1170.02 1044.45 1164.1C1040.39 1158.62 1036.36 1152.31 1034.62 1146.52L1063.35 1137.89ZM1117.97 1190.72C1141.53 1200.01 1169.61 1202.97 1199.39 1202.2L1200.17 1232.19C1168.33 1233.02 1135.75 1229.98 1106.97 1218.63L1117.97 1190.72ZM1200.17 1202.2C1229.93 1202.97 1258.02 1200.01 1281.58 1190.72L1292.57 1218.63C1263.79 1229.98 1231.21 1233.02 1199.39 1232.19L1200.17 1202.2ZM1280.14 1191.38C1292.37 1185 1306.03 1173.73 1317.28 1162.15C1322.83 1156.44 1327.53 1150.92 1330.97 1146.26C1332.69 1143.94 1334 1141.95 1334.92 1140.36C1335.92 1138.65 1336.17 1137.88 1336.16 1137.92L1364.91 1146.48C1363.18 1152.29 1359.15 1158.61 1355.09 1164.09C1350.71 1170.02 1345.1 1176.56 1338.8 1183.05C1326.34 1195.88 1310.13 1209.57 1294.01 1217.98L1280.14 1191.38ZM1335.66 1140.3C1340.21 1104.63 1346.94 1088.32 1353.8 1077.89C1355.41 1075.44 1356.93 1073.47 1357.98 1072.09C1359.15 1070.57 1359.56 1069.99 1359.82 1069.54C1359.97 1069.3 1359.98 1069.25 1360 1069.13C1360.05 1068.93 1360.2 1068.19 1360.16 1066.54L1390.15 1065.82C1390.33 1073.37 1388.91 1079.26 1385.68 1084.75C1384.35 1087.01 1382.83 1088.98 1381.83 1090.3C1380.71 1091.77 1379.81 1092.94 1378.87 1094.37C1375.5 1099.5 1369.67 1110.79 1365.42 1144.1L1335.66 1140.3ZM1360.2 1067.37C1358.13 1041.51 1348.59 1018.87 1339.56 991.788C1330.79 965.481 1323.17 936.313 1329.54 902.331L1359.03 907.859C1354.11 934.099 1359.66 957.238 1368.02 982.3C1376.11 1006.58 1387.65 1034.37 1390.1 1064.98L1360.2 1067.37ZM1329.45 902.852C1339.69 835.176 1372.62 777.077 1400.5 721.393C1428.8 664.892 1452.61 609.85 1450.48 544.256L1480.46 543.282C1482.86 616.958 1455.86 677.847 1427.33 734.826C1398.38 792.621 1368.46 845.55 1359.12 907.338L1329.45 902.852ZM1453.64 534.553C1458.43 528.394 1465.64 523.828 1473.41 522.14C1481.47 520.389 1491.62 521.573 1499.44 529.413L1478.2 550.598C1478.35 550.745 1478.57 550.921 1478.85 551.076C1479.13 551.23 1479.39 551.323 1479.61 551.374C1480.02 551.472 1480.1 551.385 1479.77 551.457C1479.44 551.529 1478.94 551.714 1478.39 552.059C1477.84 552.406 1477.48 552.768 1477.31 552.984L1453.64 534.553ZM1495.6 526.626C1524.21 541.123 1556.4 555.235 1588.76 561.512C1620.97 567.759 1652.23 566.048 1680.17 550.268L1694.92 576.387C1658.85 596.766 1619.72 598.076 1583.05 590.963C1546.54 583.881 1511.38 568.253 1482.04 553.385L1495.6 526.626ZM1681.46 549.618C1696.42 542.974 1710.65 537.98 1723.73 530.342C1736.32 522.987 1744.49 514.917 1747.76 504.597L1776.36 513.663C1769.84 534.218 1754.3 547.231 1738.85 556.248C1723.9 564.983 1705.76 571.649 1693.63 577.036L1681.46 549.618ZM1747.1 510.265C1746.38 500.822 1743.47 495.344 1739.93 491.566C1736.08 487.456 1730.35 484.155 1722.08 481.127C1713.56 478.006 1704.45 475.856 1693.43 472.764C1683 469.837 1671.41 466.185 1660.72 460.282L1675.23 434.022C1682.72 438.161 1691.51 441.067 1701.54 443.88C1710.98 446.529 1722.41 449.302 1732.39 452.955C1742.62 456.7 1753.36 462.023 1761.83 471.053C1770.6 480.416 1775.85 492.596 1777.02 507.994L1747.1 510.265ZM1660.87 460.362C1651.88 455.524 1643.25 449.675 1636.8 444.456C1633.6 441.878 1630.6 439.176 1628.27 436.593C1627.14 435.338 1625.79 433.706 1624.68 431.819C1624 430.674 1621.37 426.204 1622.25 420.345L1651.92 424.783C1652.34 421.949 1651.79 419.752 1651.46 418.714C1651.1 417.596 1650.68 416.857 1650.52 416.576C1650.2 416.035 1650.08 415.987 1650.55 416.504C1651.41 417.465 1653.1 419.059 1655.65 421.122C1660.68 425.184 1667.75 429.996 1675.08 433.942L1660.87 460.362ZM1632.6 408.248C1694.89 388.764 1752.07 355.564 1808.05 316.757C1836.03 297.363 1863.54 276.682 1891.21 255.697C1918.8 234.77 1946.6 213.5 1974.79 193.225C2087.54 112.119 2209.88 44.3881 2369.48 68.2499L2365.04 97.92C2217.51 75.8618 2103.49 137.6 1992.3 217.579C1964.51 237.574 1937.09 258.551 1909.34 279.6C1881.66 300.593 1853.7 321.618 1825.14 341.412C1768.06 380.983 1708 416.093 1641.56 436.88L1632.6 408.248ZM2364.65 68.3141C2365.95 68.083 2367.73 67.2534 2370.43 63.8235C2373.57 59.8351 2375.46 55.884 2379.3 49.6377L2404.87 65.3289C2402.69 68.8709 2398.57 76.5898 2394 82.3898C2388.99 88.7482 2381.35 95.8254 2369.87 97.8559L2364.65 68.3141ZM2377.31 54.8733C2377.93 51.3623 2377.06 47.6972 2374.33 43.5806C2371.5 39.3138 2367.14 35.36 2362.61 32.3396L2379.25 7.37825C2386.01 11.8845 2393.68 18.4745 2399.34 27.0039C2405.09 35.6837 2409.15 47.0673 2406.85 60.0933L2377.31 54.8733Z" fill="black" mask="url(#path-8-inside-2)"/>
</g>
</svg>
