<svg width="920" height="428" viewBox="0 0 920 428" fill="none" xmlns="http://www.w3.org/2000/svg">
<rect y="0.621094" width="920" height="427" fill="#003366"/>
<path d="M173.125 278.471H90.25L87 251.496C89.8167 247.813 95.775 244.238 104.875 240.771V92.2461C95.9917 88.9961 90.0333 85.3128 87 81.1961L90.25 54.2211H162.725C197.608 54.2211 225.233 63.9711 245.6 83.4711C266.183 102.971 276.475 131.679 276.475 169.596C276.475 207.296 267.158 234.921 248.525 252.471C230.108 269.804 204.975 278.471 173.125 278.471ZM151.675 243.046H175.075C191.325 243.046 204.108 238.171 213.425 228.421C222.958 218.454 227.725 199.279 227.725 170.896C227.725 116.729 207.25 89.6461 166.3 89.6461H151.675V243.046ZM463.69 54.5461V101.021L443.215 103.621C440.399 101.454 437.69 96.9044 435.09 89.9711H396.09V240.771C404.757 244.238 410.715 247.813 413.965 251.496L410.715 278.471H334.665L331.415 251.496C334.232 247.813 340.19 244.238 349.29 240.771V89.9711H310.29C307.69 96.9044 304.982 101.454 302.165 103.621L281.69 101.021V54.5461H463.69ZM569.371 140.996C570.671 135.796 574.571 127.129 581.071 114.996L593.421 91.5961C585.838 88.3461 580.529 84.8794 577.496 81.1961L580.746 54.2211H654.846L658.096 81.1961C654.196 85.9628 646.938 90.0794 636.321 93.5461L594.071 161.796L637.946 240.121C647.479 243.371 654.088 247.163 657.771 251.496L654.521 278.471H578.471L575.221 251.496C577.821 248.463 582.371 245.429 588.871 242.396L573.921 210.546C568.504 199.496 564.929 190.613 563.196 183.896L562.221 180.321H557.346C555.396 187.688 551.496 197.546 545.646 209.896L531.021 241.096C538.821 244.563 544.238 248.029 547.271 251.496L544.021 278.471H469.921L466.671 251.496C470.571 246.729 477.829 242.613 488.446 239.146L532.646 161.471L490.396 92.8961C480.213 89.4294 473.496 85.5294 470.246 81.1961L473.496 54.2211H549.546L552.796 81.1961C549.979 84.6628 545.646 87.5878 539.796 89.9711L552.796 114.346C558.429 125.179 562.329 134.063 564.496 140.996H569.371ZM785.537 92.5711C779.037 89.7544 769.287 88.3461 756.287 88.3461C743.287 88.3461 732.778 93.9794 724.762 105.246C716.745 116.513 712.737 136.229 712.737 164.396C712.737 192.563 716.528 212.604 724.112 224.521C731.912 236.221 743.395 242.071 758.562 242.071C781.745 242.071 802.545 238.604 820.962 231.671L832.662 260.596C809.695 274.246 782.72 281.071 751.737 281.071C720.753 281.071 698.328 272.296 684.462 254.746C670.812 237.196 663.987 208.488 663.987 168.621C663.987 128.754 672.437 99.2878 689.337 80.2211C706.453 61.1544 730.395 51.6211 761.162 51.6211C785.862 51.6211 809.37 58.4461 831.687 72.0961C831.687 73.3961 831.687 75.8878 831.687 79.5711C831.687 83.2544 830.928 89.5378 829.412 98.4211C827.895 107.304 825.728 114.563 822.912 120.196H792.037C789.003 114.346 786.837 105.138 785.537 92.5711Z" fill="white"/>
<line x1="914" y1="332.621" x2="6" y2="332.621" stroke="white" stroke-width="12" stroke-linecap="round" stroke-linejoin="round"/>
<line x1="832" y1="349.621" x2="88" y2="349.621" stroke="white" stroke-width="6" stroke-linecap="round" stroke-linejoin="round"/>
<path d="M581.826 296.935L582.217 297.041L582.555 297.265C583.328 297.777 584.225 298.54 584.898 299.555C585.588 300.595 586.107 302.013 585.815 303.657L585.731 304.126L585.481 304.532C585.445 304.59 585.396 304.674 585.336 304.777C585.103 305.176 584.704 305.859 584.292 306.378C583.699 307.127 582.724 308.049 581.218 308.314L580.819 308.384L580.418 308.324C565.534 306.112 554.001 312.275 542.551 320.461C540.052 322.248 537.582 324.112 535.082 325.999C534.719 326.274 534.354 326.549 533.989 326.824C531.126 328.983 528.219 331.155 525.247 333.203C520.618 336.393 515.768 339.326 510.538 341.496C511.02 341.684 511.563 341.852 512.18 342.024C512.4 342.086 512.639 342.15 512.89 342.217C513.694 342.432 514.619 342.681 515.441 342.979C516.56 343.387 517.829 343.997 518.851 345.081C519.925 346.221 520.545 347.689 520.68 349.466L520.718 349.952L520.569 350.416C519.79 352.859 517.945 354.353 516.26 355.331C515.064 356.026 513.649 356.612 512.524 357.079C512.182 357.221 511.866 357.352 511.592 357.471C507.637 359.649 503.389 359.762 499.494 359.011C496.079 358.352 492.799 357.005 489.985 355.648C489.634 362.371 487.047 368.062 484.41 373.296C484.045 374.022 483.68 374.737 483.319 375.444C480.689 380.593 478.271 385.326 477.447 390.744L477.441 390.788L477.432 390.832C476.971 393.279 477.478 395.462 478.329 397.999C478.471 398.424 478.628 398.868 478.791 399.329C479.549 401.481 480.441 404.012 480.66 406.729L480.666 406.8L480.668 406.87C480.69 407.799 480.511 408.589 480.072 409.331C479.908 409.607 479.725 409.845 479.623 409.979L479.608 409.998C479.49 410.151 479.418 410.246 479.341 410.361C479.105 410.719 478.532 411.717 478.102 415.066L478.076 415.269L478.017 415.464C477.787 416.234 477.28 416.997 476.852 417.573C476.369 418.223 475.759 418.928 475.083 419.62C473.755 420.978 471.999 422.462 470.209 423.39L470.092 423.45L469.97 423.498C466.85 424.721 463.365 425.039 460.029 424.958C456.691 425.039 453.206 424.721 450.086 423.498L449.964 423.45L449.847 423.39C448.057 422.462 446.301 420.978 444.974 419.62C444.297 418.928 443.687 418.223 443.204 417.574C442.776 416.998 442.27 416.237 442.038 415.471L441.978 415.271L441.952 415.065C441.523 411.716 440.95 410.718 440.714 410.361C440.638 410.245 440.566 410.151 440.448 409.997L440.433 409.978C440.331 409.845 440.148 409.607 439.984 409.33C439.545 408.588 439.366 407.799 439.389 406.87L439.39 406.8L439.396 406.73C439.615 404.012 440.507 401.481 441.266 399.329C441.428 398.867 441.585 398.424 441.727 397.999C442.578 395.462 443.085 393.279 442.623 390.832L442.615 390.788L442.608 390.744C441.784 385.325 439.367 380.592 436.736 375.442C436.375 374.736 436.01 374.021 435.645 373.296C433.008 368.063 430.421 362.372 430.07 355.649C427.256 357.006 423.976 358.353 420.562 359.011C416.667 359.762 412.419 359.649 408.465 357.471C408.191 357.352 407.876 357.221 407.534 357.079C406.408 356.613 404.993 356.026 403.796 355.331C402.111 354.353 400.266 352.858 399.488 350.415L399.34 349.952L399.377 349.467C399.512 347.69 400.131 346.222 401.205 345.081C402.227 343.997 403.496 343.387 404.615 342.979C405.437 342.68 406.362 342.432 407.167 342.217C407.417 342.15 407.656 342.086 407.876 342.024C408.493 341.852 409.036 341.684 409.518 341.496C404.288 339.326 399.438 336.393 394.809 333.203C391.837 331.155 388.931 328.983 386.068 326.824C385.702 326.549 385.338 326.273 384.974 325.999C382.474 324.112 380.005 322.248 377.506 320.461C366.057 312.275 354.523 306.112 339.639 308.324L339.238 308.384L338.839 308.314C337.333 308.049 336.359 307.127 335.765 306.38C335.355 305.862 334.955 305.179 334.721 304.781C334.66 304.677 334.611 304.592 334.576 304.535L334.327 304.134L334.242 303.669C333.939 302.017 334.463 300.591 335.156 299.55C335.832 298.535 336.733 297.774 337.501 297.265L337.839 297.041L338.23 296.935C347.791 294.352 359.089 296.295 367.874 298.97L367.889 298.975L367.905 298.98C376.433 301.7 384.278 305.919 391.824 310.385C394.156 311.765 396.448 313.161 398.723 314.547C403.857 317.674 408.905 320.749 414.142 323.476C421.773 326.654 431.899 327.122 438.416 323.107C440.03 322.007 441.991 321.975 443.138 322.05C443.594 322.08 444.01 322.134 444.359 322.191C445.775 321.47 447.434 321.264 449.265 321.914L449.605 322.034L449.897 322.246C450.762 322.874 451.597 322.832 453.594 322.383C453.701 322.359 453.814 322.333 453.93 322.306C455.438 321.959 457.68 321.442 460.029 322.245C462.377 321.442 464.619 321.959 466.126 322.306C466.243 322.333 466.355 322.359 466.463 322.383C468.46 322.832 469.295 322.874 470.16 322.246L470.452 322.035L470.791 321.914C472.622 321.264 474.282 321.47 475.698 322.191C476.047 322.134 476.463 322.08 476.918 322.05C478.065 321.975 480.025 322.007 481.639 323.107C488.157 327.122 498.284 326.654 505.916 323.476C511.151 320.75 516.198 317.675 521.331 314.549C523.607 313.162 525.9 311.766 528.233 310.385C535.779 305.919 543.624 301.699 552.152 298.98L552.168 298.975L552.184 298.97C560.967 296.295 572.266 294.352 581.826 296.935Z" fill="#B20931" stroke="white" stroke-width="5"/>
<line x1="6" y1="20.6211" x2="914" y2="20.6211" stroke="white" stroke-width="12" stroke-linecap="round" stroke-linejoin="round"/>
<line x1="88" y1="3.62109" x2="832" y2="3.62109" stroke="white" stroke-width="6" stroke-linecap="round" stroke-linejoin="round"/>
</svg>
