<svg width="920" height="321" viewBox="0 0 920 321" fill="none" xmlns="http://www.w3.org/2000/svg">
<path d="M168.525 274H85.65L82.4 247.025C85.2167 243.342 91.175 239.767 100.275 236.3V87.775C91.3917 84.525 85.4333 80.8417 82.4 76.725L85.65 49.75H158.125C193.008 49.75 220.633 59.5 241 79C261.583 98.5 271.875 127.208 271.875 165.125C271.875 202.825 262.558 230.45 243.925 248C225.508 265.333 200.375 274 168.525 274ZM147.075 238.575H170.475C186.725 238.575 199.508 233.7 208.825 223.95C218.358 213.983 223.125 194.808 223.125 166.425C223.125 112.258 202.65 85.175 161.7 85.175H147.075V238.575ZM459.09 50.075V96.55L438.615 99.15C435.799 96.9833 433.09 92.4333 430.49 85.5H391.49V236.3C400.157 239.767 406.115 243.342 409.365 247.025L406.115 274H330.065L326.815 247.025C329.632 243.342 335.59 239.767 344.69 236.3V85.5H305.69C303.09 92.4333 300.382 96.9833 297.565 99.15L277.09 96.55V50.075H459.09ZM564.771 136.525C566.071 131.325 569.971 122.658 576.471 110.525L588.821 87.125C581.238 83.875 575.929 80.4083 572.896 76.725L576.146 49.75H650.246L653.496 76.725C649.596 81.4917 642.338 85.6083 631.721 89.075L589.471 157.325L633.346 235.65C642.879 238.9 649.488 242.692 653.171 247.025L649.921 274H573.871L570.621 247.025C573.221 243.992 577.771 240.958 584.271 237.925L569.321 206.075C563.904 195.025 560.329 186.142 558.596 179.425L557.621 175.85H552.746C550.796 183.217 546.896 193.075 541.046 205.425L526.421 236.625C534.221 240.092 539.638 243.558 542.671 247.025L539.421 274H465.321L462.071 247.025C465.971 242.258 473.229 238.142 483.846 234.675L528.046 157L485.796 88.425C475.613 84.9583 468.896 81.0583 465.646 76.725L468.896 49.75H544.946L548.196 76.725C545.379 80.1917 541.046 83.1167 535.196 85.5L548.196 109.875C553.829 120.708 557.729 129.592 559.896 136.525H564.771ZM780.937 88.1C774.437 85.2833 764.687 83.875 751.687 83.875C738.687 83.875 728.178 89.5083 720.162 100.775C712.145 112.042 708.137 131.758 708.137 159.925C708.137 188.092 711.928 208.133 719.512 220.05C727.312 231.75 738.795 237.6 753.962 237.6C777.145 237.6 797.945 234.133 816.362 227.2L828.062 256.125C805.095 269.775 778.12 276.6 747.137 276.6C716.153 276.6 693.728 267.825 679.862 250.275C666.212 232.725 659.387 204.017 659.387 164.15C659.387 124.283 667.837 94.8167 684.737 75.75C701.853 56.6833 725.795 47.15 756.562 47.15C781.262 47.15 804.77 53.975 827.087 67.625C827.087 68.925 827.087 71.4167 827.087 75.1C827.087 78.7833 826.328 85.0667 824.812 93.95C823.295 102.833 821.128 110.092 818.312 115.725H787.437C784.403 109.875 782.237 100.667 780.937 88.1Z" fill="white"/>
<mask id="mask0" mask-type="alpha" maskUnits="userSpaceOnUse" x="261" y="63" width="398" height="202">
<path d="M655.169 65.3069C640.869 61.4199 623.553 64.3042 609.629 68.5697C583.032 77.102 560.327 95.1679 535.612 108.089C522.563 113.609 504.621 114.738 492.578 107.21C489.694 105.163 484.467 106.625 484.467 106.625C482.795 105.372 480.92 104.894 478.653 105.704C472.631 110.098 466.357 103.322 459.963 106.835C453.567 103.322 447.295 110.098 441.273 105.704C439.004 104.894 437.131 105.372 435.459 106.625C435.459 106.625 430.229 105.163 427.344 107.21C415.304 114.738 397.363 113.609 384.315 108.089C359.597 95.1679 336.893 77.102 310.297 68.5697C296.371 64.3042 279.056 61.4199 264.756 65.3069C262.874 66.5613 260.739 68.8214 261.241 71.5806C262.245 73.212 263.251 75.4706 265.383 75.8476C316.571 68.1942 344.168 119.004 387.076 132.427C387.158 132.972 384.65 135.061 381.93 136.525C375.867 139.873 366.875 138.574 366.249 146.855C367.879 152.001 374.151 153.883 378.668 155.888C389.333 161.914 402.132 156.895 411.789 152.001C412.917 150.87 414.8 151.497 415.676 152.628C414.924 175.84 432.614 191.272 435.875 212.849C437.758 222.886 431.485 230.285 430.732 239.696C430.649 243.169 433.366 240.869 434.83 252.367C435.459 254.459 440.686 260.315 445.412 262.78C449.773 264.499 454.829 264.999 459.963 264.865C465.095 264.999 470.151 264.499 474.512 262.78C479.238 260.315 484.467 254.459 485.089 252.367C486.558 240.869 489.275 243.169 489.192 239.696C488.438 230.285 482.166 222.886 484.047 212.849C487.31 191.272 504.999 175.84 504.245 152.628C505.126 151.497 507.009 150.87 508.137 152.001C517.794 156.895 530.59 161.914 541.257 155.888C545.773 153.883 552.045 152.001 553.676 146.855C553.048 138.574 544.056 139.873 537.996 136.525C535.274 135.061 532.766 132.972 532.847 132.427C575.756 119.004 603.357 68.1942 654.543 75.8476C656.675 75.4706 657.679 73.212 658.68 71.5806C659.167 68.8245 657.037 66.5643 655.155 65.3099" fill="white"/>
</mask>
<g mask="url(#mask0)">
<path d="M460 62H660V163.912H460V62Z" fill="white"/>
<path d="M460 164H660V265.912H460V164Z" fill="#B20931"/>
<path d="M260 62H460V265.833H260V62Z" fill="#003366"/>
<path d="M438.75 149.333L442.024 159.41H452.62L444.048 165.638L447.322 175.715L438.75 169.487L430.178 175.715L433.452 165.638L424.88 159.41H435.476L438.75 149.333Z" fill="white"/>
<mask id="path-8-inside-1" fill="white">
<path d="M655.168 65.3069C640.869 61.4199 623.553 64.3042 609.629 68.5697C583.032 77.102 560.327 95.1679 535.612 108.089C522.563 113.609 504.621 114.738 492.578 107.21C489.694 105.163 484.467 106.625 484.467 106.625C482.795 105.372 480.92 104.894 478.653 105.704C472.631 110.098 466.357 103.322 459.963 106.835C453.567 103.322 447.295 110.098 441.273 105.704C439.004 104.894 437.131 105.372 435.459 106.625C435.459 106.625 430.229 105.163 427.344 107.21C415.303 114.738 397.363 113.609 384.315 108.089C359.597 95.1679 336.893 77.102 310.297 68.5697C296.371 64.3042 279.056 61.4199 264.756 65.3069C262.874 66.5613 260.739 68.8214 261.241 71.5806C262.245 73.212 263.251 75.4706 265.383 75.8476C316.571 68.1942 344.168 119.004 387.076 132.427C387.158 132.972 384.65 135.061 381.93 136.525C375.867 139.873 366.875 138.574 366.249 146.855C367.879 152.001 374.151 153.883 378.668 155.888C389.333 161.914 402.132 156.895 411.789 152.001C412.917 150.87 414.8 151.497 415.676 152.628C414.924 175.84 432.614 191.272 435.875 212.849C437.758 222.886 431.485 230.285 430.732 239.696C430.649 243.169 433.366 240.869 434.83 252.367C435.459 254.459 440.686 260.315 445.412 262.78C449.773 264.499 454.829 264.999 459.963 264.865C465.095 264.999 470.151 264.499 474.512 262.78C479.238 260.315 484.467 254.459 485.089 252.367C486.558 240.869 489.275 243.169 489.192 239.696C488.438 230.285 482.166 222.886 484.047 212.849C487.31 191.272 504.999 175.84 504.245 152.628C505.126 151.497 507.009 150.87 508.137 152.001C517.794 156.895 530.59 161.914 541.257 155.888C545.773 153.883 552.045 152.001 553.676 146.855C553.048 138.574 544.056 139.873 537.996 136.525C535.274 135.061 532.766 132.972 532.847 132.427C575.756 119.004 603.356 68.1942 654.543 75.8476C656.675 75.4706 657.679 73.212 658.68 71.5806C659.167 68.8245 657.037 66.5643 655.155 65.3099"/>
</mask>
<path d="M609.629 68.5697L608.687 65.6345L608.706 65.6283L608.726 65.6224L609.629 68.5697ZM535.612 108.089L537.04 110.821L536.929 110.879L536.813 110.928L535.612 108.089ZM492.578 107.21L490.944 109.824L490.868 109.776L490.794 109.724L492.578 107.21ZM484.467 106.625L485.297 109.594L483.834 110.003L482.618 109.092L484.467 106.625ZM478.653 105.704L476.836 103.214L477.196 102.951L477.616 102.801L478.653 105.704ZM459.963 106.835L461.447 109.536L459.963 110.352L458.479 109.537L459.963 106.835ZM441.273 105.704L442.309 102.801L442.729 102.951L443.09 103.214L441.273 105.704ZM435.459 106.625L437.307 109.092L436.092 110.003L434.629 109.594L435.459 106.625ZM427.344 107.21L429.129 109.724L429.055 109.776L428.978 109.824L427.344 107.21ZM384.315 108.089L383.114 110.928L382.998 110.879L382.887 110.821L384.315 108.089ZM310.297 68.5697L311.2 65.6224L311.219 65.6283L311.238 65.6345L310.297 68.5697ZM264.756 65.3069L263.046 62.7421L263.463 62.4639L263.947 62.3324L264.756 65.3069ZM261.241 71.5806L258.616 73.1964L258.312 72.7028L258.208 72.1325L261.241 71.5806ZM265.383 75.8476L265.839 78.8961L265.341 78.9705L264.846 78.8829L265.383 75.8476ZM387.076 132.427L387.996 129.486L389.833 130.06L390.123 131.963L387.076 132.427ZM381.93 136.525L380.44 133.827L380.454 133.819L380.469 133.811L381.93 136.525ZM366.249 146.855L363.311 147.786L363.131 147.217L363.175 146.623L366.249 146.855ZM378.668 155.888L379.919 153.071L380.055 153.131L380.185 153.204L378.668 155.888ZM411.789 152.001L413.971 154.178L413.623 154.527L413.182 154.751L411.789 152.001ZM415.676 152.628L418.113 150.741L418.793 151.618L418.757 152.728L415.676 152.628ZM435.875 212.849L432.846 213.418L432.835 213.364L432.827 213.31L435.875 212.849ZM430.732 239.696L427.651 239.623L427.653 239.537L427.66 239.451L430.732 239.696ZM434.83 252.367L431.878 253.255L431.805 253.01L431.772 252.757L434.83 252.367ZM445.412 262.78L444.281 265.648L444.13 265.588L443.986 265.513L445.412 262.78ZM459.963 264.865L459.882 261.784L459.963 261.782L460.043 261.784L459.963 264.865ZM474.512 262.78L475.938 265.513L475.794 265.588L475.643 265.648L474.512 262.78ZM485.089 252.367L488.147 252.758L488.115 253.007L488.044 253.247L485.089 252.367ZM489.192 239.696L492.264 239.45L492.271 239.536L492.273 239.623L489.192 239.696ZM484.047 212.849L487.095 213.31L487.087 213.364L487.077 213.417L484.047 212.849ZM504.245 152.628L501.164 152.728L501.128 151.614L501.813 150.734L504.245 152.628ZM508.137 152.001L506.743 154.751L506.303 154.527L505.954 154.178L508.137 152.001ZM541.257 155.888L539.741 153.204L539.87 153.131L540.006 153.071L541.257 155.888ZM553.676 146.855L556.75 146.622L556.795 147.217L556.615 147.787L553.676 146.855ZM537.996 136.525L539.456 133.811L539.471 133.819L539.486 133.827L537.996 136.525ZM532.847 132.427L529.798 131.971L530.084 130.062L531.927 129.486L532.847 132.427ZM654.543 75.8476L655.079 78.8829L654.584 78.9705L654.087 78.8961L654.543 75.8476ZM658.68 71.5806L661.715 72.117L661.614 72.6937L661.307 73.1929L658.68 71.5806ZM654.36 68.2814C640.911 64.6256 624.279 67.3055 610.532 71.5169L608.726 65.6224C622.826 61.303 640.827 58.2142 655.977 62.3324L654.36 68.2814ZM610.57 71.5048C597.613 75.6616 585.529 82.1655 573.492 89.3322C561.554 96.4393 549.495 104.309 537.04 110.821L534.184 105.358C546.444 98.9477 558.095 91.3242 570.338 84.035C582.481 76.8053 595.048 70.01 608.687 65.6345L610.57 71.5048ZM536.813 110.928C523.222 116.677 504.139 118.073 490.944 109.824L494.212 104.597C505.102 111.404 521.903 110.541 534.411 105.25L536.813 110.928ZM490.794 109.724C490.257 109.343 489.149 109.127 487.643 109.226C486.974 109.27 486.365 109.366 485.923 109.453C485.704 109.496 485.533 109.536 485.423 109.562C485.368 109.576 485.329 109.586 485.307 109.591C485.296 109.594 485.29 109.596 485.288 109.596C485.287 109.596 485.288 109.596 485.289 109.596C485.29 109.596 485.291 109.595 485.292 109.595C485.293 109.595 485.294 109.595 485.294 109.594C485.295 109.594 485.296 109.594 485.296 109.594C485.296 109.594 485.297 109.594 484.467 106.625C483.636 103.657 483.637 103.657 483.638 103.656C483.638 103.656 483.639 103.656 483.639 103.656C483.64 103.656 483.642 103.655 483.643 103.655C483.646 103.654 483.648 103.653 483.652 103.652C483.658 103.651 483.666 103.648 483.675 103.646C483.693 103.641 483.717 103.635 483.745 103.627C483.801 103.613 483.877 103.593 483.971 103.571C484.158 103.525 484.418 103.466 484.734 103.404C485.362 103.281 486.241 103.14 487.238 103.074C489.067 102.954 492.015 103.03 494.363 104.697L490.794 109.724ZM482.618 109.092C481.659 108.373 480.855 108.191 479.689 108.607L477.616 102.801C480.986 101.598 483.93 102.372 486.315 104.158L482.618 109.092ZM480.47 108.194C476.218 111.296 471.814 110.295 468.768 109.606C465.395 108.843 463.447 108.437 461.447 109.536L458.479 104.133C462.872 101.719 467.259 102.945 470.127 103.593C473.322 104.316 475.066 104.505 476.836 103.214L480.47 108.194ZM458.479 109.537C456.477 108.437 454.53 108.844 451.157 109.606C448.111 110.295 443.708 111.296 439.456 108.194L443.09 103.214C444.86 104.505 446.603 104.316 449.798 103.593C452.666 102.945 457.052 101.719 461.447 104.133L458.479 109.537ZM440.237 108.607C439.069 108.191 438.267 108.373 437.307 109.092L433.611 104.158C435.995 102.372 438.938 101.598 442.309 102.801L440.237 108.607ZM435.459 106.625C434.629 109.594 434.63 109.594 434.63 109.594C434.631 109.594 434.631 109.594 434.632 109.595C434.632 109.595 434.633 109.595 434.634 109.595C434.635 109.596 434.636 109.596 434.637 109.596C434.638 109.596 434.639 109.597 434.638 109.596C434.636 109.596 434.63 109.594 434.619 109.591C434.597 109.586 434.558 109.576 434.503 109.562C434.393 109.536 434.222 109.496 434.003 109.453C433.56 109.367 432.951 109.27 432.281 109.226C430.774 109.127 429.665 109.343 429.129 109.724L425.56 104.697C427.908 103.03 430.857 102.954 432.686 103.074C433.684 103.14 434.562 103.281 435.191 103.404C435.507 103.466 435.767 103.525 435.954 103.571C436.048 103.593 436.124 103.613 436.18 103.627C436.208 103.635 436.232 103.641 436.25 103.646C436.259 103.648 436.267 103.651 436.273 103.652C436.277 103.653 436.28 103.654 436.282 103.655C436.284 103.655 436.285 103.655 436.286 103.656C436.286 103.656 436.287 103.656 436.288 103.656C436.288 103.656 436.289 103.657 435.459 106.625ZM428.978 109.824C415.785 118.073 396.703 116.677 383.114 110.928L385.516 105.25C398.022 110.541 414.822 111.404 425.71 104.597L428.978 109.824ZM382.887 110.821C370.431 104.309 358.371 96.4394 346.433 89.3322C334.396 82.1655 322.313 75.6616 309.355 71.5048L311.238 65.6345C324.878 70.01 337.444 76.8053 349.587 84.035C361.83 91.3242 373.481 98.9477 385.743 105.358L382.887 110.821ZM309.394 71.517C295.645 67.3055 279.015 64.6256 265.564 68.2814L263.947 62.3324C279.098 58.2142 297.098 61.303 311.2 65.6224L309.394 71.517ZM266.465 67.8716C265.752 68.3471 265.089 68.9545 264.675 69.581C264.281 70.1754 264.201 70.6314 264.274 71.0288L258.208 72.1325C257.779 69.7706 258.515 67.717 259.534 66.1779C260.532 64.671 261.877 63.5211 263.046 62.7421L266.465 67.8716ZM263.866 69.9649C264.096 70.3384 264.481 71.0063 264.654 71.2942C264.898 71.7006 265.107 72.0188 265.309 72.2755C265.716 72.7912 265.899 72.8085 265.919 72.8122L264.846 78.8829C262.735 78.5097 261.349 77.2092 260.469 76.0935C259.68 75.0933 258.946 73.7326 258.616 73.1964L263.866 69.9649ZM264.927 72.799C291.76 68.787 312.312 80.1918 331.134 93.7314C335.84 97.116 340.48 100.667 345.075 104.152C349.686 107.649 354.263 111.09 358.914 114.314C368.222 120.767 377.697 126.263 387.996 129.486L386.155 135.369C375.001 131.88 364.936 125.991 355.402 119.381C350.632 116.074 345.962 112.563 341.349 109.064C336.721 105.554 332.16 102.063 327.534 98.736C309.034 85.4281 290.193 75.2548 265.839 78.8961L264.927 72.799ZM390.123 131.963C390.304 133.154 389.77 134.053 389.646 134.263C389.433 134.626 389.181 134.931 388.979 135.155C388.563 135.617 388.035 136.089 387.491 136.529C386.387 137.421 384.921 138.416 383.391 139.24L380.469 133.811C381.658 133.171 382.806 132.389 383.616 131.734C384.029 131.401 384.283 131.157 384.399 131.028C384.463 130.957 384.415 130.998 384.333 131.136C384.291 131.207 384.2 131.372 384.124 131.613C384.052 131.838 383.938 132.3 384.028 132.892L390.123 131.963ZM383.419 139.224C381.576 140.242 379.59 140.865 377.842 141.355C375.975 141.879 374.503 142.225 373.11 142.735C371.769 143.226 370.912 143.736 370.36 144.326C369.872 144.846 369.433 145.629 369.323 147.087L363.175 146.623C363.378 143.941 364.297 141.78 365.861 140.111C367.36 138.51 369.248 137.584 370.991 136.946C372.682 136.326 374.634 135.852 376.177 135.419C377.841 134.953 379.252 134.483 380.44 133.827L383.419 139.224ZM369.188 145.924C369.669 147.445 370.887 148.694 372.93 149.887C375.074 151.139 377.37 151.939 379.919 153.071L377.418 158.705C375.449 157.832 372.351 156.688 369.822 155.211C367.193 153.676 364.459 151.411 363.311 147.786L369.188 145.924ZM380.185 153.204C384.68 155.745 389.738 156.038 395.019 155.014C400.333 153.983 405.642 151.661 410.396 149.251L413.182 154.751C408.279 157.236 402.359 159.87 396.193 161.066C389.995 162.268 383.321 162.058 377.152 158.572L380.185 153.204ZM409.606 149.824C411.082 148.345 412.993 148.131 414.482 148.454C415.91 148.765 417.231 149.602 418.113 150.741L413.239 154.516C413.257 154.54 413.251 154.525 413.213 154.501C413.176 154.478 413.155 154.475 413.172 154.479C413.189 154.482 413.292 154.502 413.459 154.463C413.644 154.419 413.832 154.318 413.971 154.178L409.606 149.824ZM418.757 152.728C418.407 163.504 422.315 172.564 427.027 181.971C431.654 191.211 437.201 200.995 438.923 212.389L432.827 213.31C431.288 203.126 426.359 194.405 421.514 184.732C416.754 175.226 412.192 164.965 412.595 152.528L418.757 152.728ZM438.905 212.281C439.996 218.095 438.686 223.074 437.216 227.482C435.693 232.051 434.142 235.724 433.805 239.942L427.66 239.451C428.075 234.258 430.037 229.525 431.368 225.533C432.752 221.38 433.638 217.641 432.846 213.418L438.905 212.281ZM433.814 239.77C433.808 240.01 433.83 240.08 433.824 240.055C433.821 240.042 433.814 240.019 433.803 239.993C433.793 239.968 433.785 239.955 433.789 239.962C433.813 240.002 433.859 240.071 434.056 240.329C434.231 240.557 434.496 240.901 434.777 241.329C435.987 243.171 437.125 245.987 437.888 251.978L431.772 252.757C431.071 247.25 430.119 245.467 429.625 244.715C429.481 244.495 429.344 244.316 429.156 244.07C428.992 243.855 428.717 243.498 428.474 243.086C427.874 242.064 427.618 240.972 427.651 239.623L433.814 239.77ZM437.782 251.48C437.776 251.458 437.939 251.855 438.562 252.696C439.118 253.448 439.885 254.348 440.795 255.285C442.647 257.191 444.874 259.023 446.837 260.047L443.986 265.513C441.223 264.072 438.474 261.743 436.374 259.582C435.308 258.485 434.355 257.375 433.606 256.363C432.925 255.442 432.199 254.322 431.878 253.255L437.782 251.48ZM446.542 259.912C450.367 261.419 454.96 261.912 459.882 261.784L460.043 267.947C454.697 268.086 449.18 267.578 444.281 265.648L446.542 259.912ZM460.043 261.784C464.964 261.912 469.557 261.419 473.382 259.912L475.643 265.648C470.744 267.578 465.227 268.086 459.882 267.947L460.043 261.784ZM473.087 260.047C475.05 259.023 477.277 257.191 479.128 255.285C480.038 254.349 480.805 253.449 481.36 252.698C481.982 251.856 482.143 251.462 482.135 251.488L488.044 253.247C487.725 254.318 486.998 255.441 486.317 256.362C485.569 257.374 484.616 258.484 483.55 259.581C481.45 261.743 478.701 264.072 475.938 265.513L473.087 260.047ZM482.032 251.977C482.797 245.986 483.936 243.17 485.147 241.329C485.428 240.9 485.694 240.557 485.868 240.329C486.065 240.07 486.112 240.002 486.135 239.962C486.139 239.955 486.132 239.967 486.121 239.993C486.11 240.019 486.103 240.042 486.1 240.055C486.094 240.08 486.116 240.01 486.11 239.77L492.273 239.623C492.306 240.972 492.05 242.064 491.45 243.086C491.207 243.499 490.932 243.855 490.767 244.071C490.579 244.317 490.443 244.496 490.298 244.716C489.803 245.468 488.85 247.251 488.147 252.758L482.032 251.977ZM486.119 239.942C485.781 235.724 484.23 232.051 482.707 227.482C481.237 223.074 479.928 218.095 481.018 212.281L487.077 213.417C486.285 217.64 487.171 221.38 488.556 225.533C489.887 229.525 491.849 234.257 492.264 239.45L486.119 239.942ZM481 212.388C482.722 200.995 488.269 191.211 492.896 181.971C497.608 172.564 501.514 163.504 501.164 152.728L507.326 152.528C507.73 164.964 503.169 175.226 498.409 184.732C493.564 194.405 488.635 203.126 487.095 213.31L481 212.388ZM501.813 150.734C502.696 149.6 504.016 148.765 505.444 148.454C506.932 148.131 508.844 148.345 510.319 149.824L505.954 154.178C506.094 154.318 506.281 154.419 506.467 154.463C506.633 154.502 506.736 154.482 506.753 154.479C506.768 154.475 506.747 154.479 506.708 154.503C506.669 154.528 506.661 154.543 506.677 154.522L501.813 150.734ZM509.53 149.251C514.284 151.661 519.592 153.983 524.905 155.014C530.186 156.038 535.244 155.745 539.741 153.204L542.773 158.572C536.603 162.057 529.93 162.268 523.731 161.066C517.565 159.87 511.647 157.236 506.743 154.751L509.53 149.251ZM540.006 153.071C542.555 151.939 544.851 151.139 546.994 149.887C549.038 148.694 550.256 147.445 550.738 145.924L556.615 147.787C555.466 151.411 552.732 153.676 550.103 155.211C547.573 156.688 544.475 157.832 542.508 158.705L540.006 153.071ZM550.603 147.088C550.492 145.63 550.052 144.847 549.564 144.326C549.012 143.736 548.154 143.226 546.813 142.735C545.42 142.225 543.948 141.879 542.081 141.355C540.334 140.865 538.348 140.242 536.505 139.224L539.486 133.827C540.673 134.483 542.084 134.953 543.747 135.419C545.289 135.852 547.241 136.327 548.932 136.946C550.676 137.584 552.563 138.51 554.062 140.111C555.626 141.78 556.546 143.94 556.75 146.622L550.603 147.088ZM536.536 139.24C535.004 138.416 533.537 137.421 532.433 136.529C531.889 136.089 531.362 135.618 530.945 135.156C530.744 134.932 530.492 134.627 530.278 134.266C530.155 134.057 529.621 133.16 529.798 131.971L535.896 132.883C535.984 132.293 535.869 131.832 535.798 131.608C535.721 131.368 535.63 131.204 535.588 131.133C535.507 130.996 535.459 130.956 535.524 131.027C535.64 131.156 535.895 131.4 536.308 131.734C537.118 132.389 538.266 133.171 539.456 133.811L536.536 139.24ZM531.927 129.486C542.226 126.263 551.702 120.767 561.01 114.314C565.661 111.09 570.239 107.649 574.85 104.152C579.445 100.667 584.085 97.116 588.791 93.7313C607.614 80.1918 628.166 68.787 654.999 72.799L654.087 78.8961C629.733 75.2548 610.892 85.4281 592.391 98.736C587.765 102.063 583.204 105.554 578.575 109.064C573.962 112.563 569.292 116.074 564.522 119.381C554.988 125.991 544.922 131.88 533.767 135.369L531.927 129.486ZM654.006 72.8122C654.026 72.8086 654.209 72.7917 654.614 72.2769C654.816 72.0205 655.024 71.7027 655.268 71.2966C655.438 71.0135 655.827 70.3372 656.053 69.9684L661.307 73.1929C660.977 73.7307 660.246 75.0903 659.457 76.0922C658.577 77.2088 657.191 78.5096 655.079 78.8829L654.006 72.8122ZM655.645 71.0443C655.715 70.6439 655.633 70.1828 655.237 69.5854C654.82 68.957 654.157 68.3492 653.445 67.8747L656.865 62.7451C658.035 63.5251 659.378 64.6746 660.375 66.1789C661.393 67.7141 662.132 69.7612 661.715 72.117L655.645 71.0443Z" fill="black" mask="url(#path-8-inside-1)"/>
</g>
<line x1="88" y1="318" x2="832" y2="318" stroke="white" stroke-width="6" stroke-linecap="round" stroke-linejoin="round"/>
<line x1="6" y1="295" x2="914" y2="295" stroke="white" stroke-width="12" stroke-linecap="round" stroke-linejoin="round"/>
<line x1="6" y1="20" x2="914" y2="20" stroke="white" stroke-width="12" stroke-linecap="round" stroke-linejoin="round"/>
<line x1="88" y1="3" x2="832" y2="3" stroke="white" stroke-width="6" stroke-linecap="round" stroke-linejoin="round"/>
</svg>
