<svg width="920" height="316" viewBox="0 0 920 316" fill="none" xmlns="http://www.w3.org/2000/svg">
<path d="M173.125 269.85H90.25L87 242.875C89.8167 239.192 95.775 235.617 104.875 232.15V83.625C95.9917 80.375 90.0333 76.6917 87 72.575L90.25 45.6H162.725C197.608 45.6 225.233 55.35 245.6 74.85C266.183 94.35 276.475 123.058 276.475 160.975C276.475 198.675 267.158 226.3 248.525 243.85C230.108 261.183 204.975 269.85 173.125 269.85ZM151.675 234.425H175.075C191.325 234.425 204.108 229.55 213.425 219.8C222.958 209.833 227.725 190.658 227.725 162.275C227.725 108.108 207.25 81.025 166.3 81.025H151.675V234.425ZM463.69 45.925V92.4L443.215 95C440.399 92.8333 437.69 88.2833 435.09 81.35H396.09V232.15C404.757 235.617 410.715 239.192 413.965 242.875L410.715 269.85H334.665L331.415 242.875C334.232 239.192 340.19 235.617 349.29 232.15V81.35H310.29C307.69 88.2833 304.982 92.8333 302.165 95L281.69 92.4V45.925H463.69ZM569.371 132.375C570.671 127.175 574.571 118.508 581.071 106.375L593.421 82.975C585.838 79.725 580.529 76.2583 577.496 72.575L580.746 45.6H654.846L658.096 72.575C654.196 77.3417 646.938 81.4583 636.321 84.925L594.071 153.175L637.946 231.5C647.479 234.75 654.088 238.542 657.771 242.875L654.521 269.85H578.471L575.221 242.875C577.821 239.842 582.371 236.808 588.871 233.775L573.921 201.925C568.504 190.875 564.929 181.992 563.196 175.275L562.221 171.7H557.346C555.396 179.067 551.496 188.925 545.646 201.275L531.021 232.475C538.821 235.942 544.238 239.408 547.271 242.875L544.021 269.85H469.921L466.671 242.875C470.571 238.108 477.829 233.992 488.446 230.525L532.646 152.85L490.396 84.275C480.213 80.8083 473.496 76.9083 470.246 72.575L473.496 45.6H549.546L552.796 72.575C549.979 76.0417 545.646 78.9667 539.796 81.35L552.796 105.725C558.429 116.558 562.329 125.442 564.496 132.375H569.371ZM785.537 83.95C779.037 81.1333 769.287 79.725 756.287 79.725C743.287 79.725 732.778 85.3583 724.762 96.625C716.745 107.892 712.737 127.608 712.737 155.775C712.737 183.942 716.528 203.983 724.112 215.9C731.912 227.6 743.395 233.45 758.562 233.45C781.745 233.45 802.545 229.983 820.962 223.05L832.662 251.975C809.695 265.625 782.72 272.45 751.737 272.45C720.753 272.45 698.328 263.675 684.462 246.125C670.812 228.575 663.987 199.867 663.987 160C663.987 120.133 672.437 90.6667 689.337 71.6C706.453 52.5333 730.395 43 761.162 43C785.862 43 809.37 49.825 831.687 63.475C831.687 64.775 831.687 67.2667 831.687 70.95C831.687 74.6333 830.928 80.9167 829.412 89.8C827.895 98.6833 825.728 105.942 822.912 111.575H792.037C789.003 105.725 786.837 96.5167 785.537 83.95Z" fill="white"/>
<path d="M664.4 58.4331L664.713 58.5176L664.983 58.6967C666.069 59.4158 667.283 60.4603 668.171 61.7987C669.072 63.1574 669.689 64.9114 669.335 66.9063L669.268 67.2821L669.067 67.6069C668.974 67.7588 668.864 67.9453 668.742 68.1539C668.362 68.8036 667.855 69.668 667.3 70.3688C666.506 71.37 665.337 72.4331 663.603 72.7378L663.284 72.7939L662.963 72.7462C638.349 69.0879 619.344 79.3425 600.918 92.5169C596.897 95.3923 592.924 98.391 588.926 101.409C588.344 101.848 587.761 102.287 587.178 102.727C582.598 106.18 577.977 109.634 573.261 112.884C564.747 118.751 555.854 124.005 546.163 127.471C546.857 127.958 547.655 128.459 548.473 128.896L548.483 128.901L548.493 128.907C549.785 129.616 551.285 130.106 552.951 130.571C553.345 130.681 553.755 130.791 554.175 130.903C555.445 131.244 556.798 131.607 558.021 132.052C559.682 132.656 561.379 133.499 562.706 134.907C564.075 136.36 564.908 138.26 565.095 140.703L565.124 141.092L565.006 141.463C563.978 144.687 561.521 146.75 559.012 148.206C557.225 149.243 555.173 150.094 553.397 150.831C552.777 151.088 552.191 151.331 551.661 151.564C545.848 154.795 539.535 155.009 533.57 153.859C527.595 152.707 521.824 150.161 516.981 147.721L516.695 147.577L516.469 147.351C516.463 147.346 516.471 147.351 516.47 147.351C516.456 147.347 516.394 147.337 516.279 147.362C516.205 147.378 516.122 147.406 516.037 147.446C516.171 159.016 511.863 168.664 507.271 177.779C506.693 178.927 506.111 180.064 505.533 181.195C501.337 189.404 497.309 197.283 495.938 206.296L495.933 206.331L495.926 206.365C495.09 210.8 496.041 214.698 497.43 218.84C497.676 219.573 497.939 220.32 498.207 221.083C499.417 224.524 500.736 228.271 501.063 232.333L501.067 232.39L501.069 232.446C501.097 233.617 500.877 234.499 500.394 235.316C500.196 235.652 499.968 235.949 499.8 236.167L499.787 236.184L499.779 236.194C499.598 236.429 499.443 236.632 499.278 236.88C498.666 237.806 497.688 239.74 496.979 245.256L496.958 245.418L496.912 245.575C496.65 246.448 496.024 247.433 495.359 248.329C494.649 249.284 493.734 250.344 492.702 251.399C490.66 253.49 488.019 255.703 485.414 257.054L485.321 257.102L485.223 257.141C480.56 258.967 475.262 259.469 470.046 259.337C464.828 259.469 459.53 258.967 454.868 257.141L454.77 257.102L454.676 257.054C452.071 255.703 449.431 253.489 447.388 251.399C446.356 250.344 445.442 249.284 444.731 248.33C444.064 247.434 443.439 246.451 443.176 245.58L443.128 245.42L443.106 245.255C442.4 239.739 441.423 237.805 440.811 236.88C440.647 236.631 440.491 236.429 440.31 236.193L440.303 236.183L440.29 236.166C440.122 235.948 439.894 235.652 439.696 235.316C439.213 234.499 438.993 233.617 439.021 232.446L439.023 232.39L439.027 232.334C439.354 228.271 440.672 224.523 441.883 221.082C442.151 220.32 442.414 219.572 442.659 218.84C444.049 214.698 444.999 210.8 444.162 206.366L444.156 206.331L444.15 206.295C442.78 197.282 438.752 189.403 434.555 181.193C433.977 180.062 433.396 178.926 432.818 177.779C428.226 168.664 423.916 159.016 424.05 147.445C423.966 147.405 423.885 147.378 423.812 147.362C423.698 147.337 423.636 147.347 423.622 147.351C423.62 147.351 423.629 147.346 423.623 147.351L423.396 147.577L423.111 147.721C418.267 150.161 412.496 152.707 406.521 153.859C400.555 155.009 394.243 154.795 388.431 151.564C387.901 151.332 387.315 151.089 386.696 150.832C384.919 150.095 382.867 149.244 381.078 148.206C378.57 146.75 376.113 144.687 375.086 141.463L374.968 141.092L374.997 140.704C375.183 138.261 376.015 136.36 377.384 134.907C378.711 133.5 380.407 132.656 382.068 132.052C383.292 131.607 384.645 131.244 385.916 130.903C386.335 130.791 386.745 130.681 387.139 130.571C388.806 130.106 390.307 129.616 391.599 128.906L391.609 128.901L391.618 128.896C392.436 128.459 393.234 127.958 393.927 127.471C384.236 124.005 375.343 118.751 366.829 112.884C362.113 109.634 357.493 106.18 352.912 102.727C352.329 102.287 351.747 101.848 351.165 101.408C347.167 98.3907 343.194 95.3922 339.173 92.5168C320.748 79.3425 301.743 69.0879 277.128 72.7462L276.808 72.7939L276.488 72.7378C274.755 72.4331 273.586 71.3703 272.792 70.3696C272.237 69.6707 271.73 68.8079 271.349 68.1589C271.226 67.9491 271.116 67.7616 271.021 67.6092L270.823 67.288L270.755 66.9164C270.388 64.9133 271.009 63.1538 271.914 61.7945C272.806 60.4561 274.025 59.4135 275.107 58.6967L275.377 58.5176L275.69 58.4331C290.439 54.4482 308.074 57.4262 322.015 61.671L322.028 61.6749L322.04 61.6789C335.465 65.96 347.86 72.6171 359.9 79.7424C363.583 81.9222 367.223 84.1393 370.849 86.348C379.116 91.3835 387.311 96.375 395.78 100.78C408.362 106.046 425.367 106.977 436.557 100.053C438.568 98.6644 441.146 98.568 442.89 98.682C443.824 98.7431 444.65 98.8746 445.241 98.99C445.267 98.9951 445.293 99.0002 445.318 99.0052C447.273 97.8259 449.555 97.4302 452.156 98.3527L452.428 98.4492L452.662 98.6186C454.849 100.205 457.042 99.8777 460.189 99.1703C460.345 99.1353 460.503 99.0991 460.664 99.0623C463.296 98.4623 466.635 97.7008 470.046 99.1361C473.456 97.7008 476.795 98.4623 479.426 99.0623C479.588 99.0991 479.747 99.1353 479.902 99.1703C483.049 99.8777 485.243 100.205 487.43 98.6186L487.664 98.4493L487.935 98.3528C490.535 97.4302 492.819 97.8259 494.773 99.0051C494.798 99.0001 494.824 98.9951 494.85 98.99C495.441 98.8746 496.266 98.7431 497.2 98.682C498.943 98.568 501.521 98.6644 503.532 100.053C514.723 106.977 531.729 106.046 544.314 100.78C552.779 96.376 560.971 91.3858 569.237 86.3516C572.865 84.1417 576.507 81.9234 580.192 79.7424C592.231 72.6171 604.626 65.96 618.051 61.6789L618.064 61.6749L618.077 61.6711C632.016 57.4262 649.653 54.4482 664.4 58.4331Z" stroke="black" stroke-width="4"/>
<path fill-rule="evenodd" clip-rule="evenodd" d="M663.879 60.3638C649.68 56.5272 632.485 59.3742 618.659 63.5843C601.454 69.0709 585.889 78.5512 570.344 88.0195C562.027 93.0849 553.716 98.1469 545.163 102.592C532.205 108.04 514.39 109.155 502.432 101.724C499.568 99.7034 494.377 101.147 494.377 101.147C492.717 99.9102 490.856 99.4385 488.604 100.238C485.504 102.486 482.336 101.771 479.118 101.044C476.132 100.369 473.103 99.6844 470.046 101.354V156.933H491.583H513.121C513.793 153.63 514.136 150.189 514.017 146.554C514.891 145.438 516.761 144.819 517.881 145.935C527.47 150.766 540.176 155.72 550.768 149.771C551.403 149.492 552.071 149.214 552.757 148.93C556.922 147.202 561.71 145.217 563.1 140.856C562.673 135.255 558.345 134.094 553.728 132.855C551.607 132.285 549.424 131.7 547.53 130.66C544.828 129.215 542.337 127.152 542.417 126.615C559.072 121.436 573.404 110.618 587.72 99.8131C610.028 82.9752 632.298 66.1666 663.257 70.768C665.078 70.448 666.07 68.7548 666.944 67.2627C667.087 67.0196 667.226 66.7819 667.365 66.5563C667.849 63.8358 665.747 61.602 663.879 60.3638Z" fill="white"/>
<path fill-rule="evenodd" clip-rule="evenodd" d="M470.046 156.933H491.583H513.121C511.416 165.304 507.588 172.785 503.758 180.271C499.573 188.452 495.384 196.638 493.961 205.995C492.853 211.873 494.594 216.834 496.35 221.837C497.554 225.266 498.765 228.716 499.069 232.494C499.101 233.795 498.732 234.275 498.182 234.99C497.283 236.16 495.901 237.958 494.996 245.001C494.377 247.065 489.185 252.845 484.493 255.279C480.162 256.975 475.142 257.469 470.046 257.337V156.933Z" fill="#B20931"/>
<path d="M451.487 100.238C457.467 104.574 463.695 97.8862 470.046 101.354V156.933V257.337C464.948 257.469 459.928 256.975 455.597 255.279C450.905 252.845 445.714 247.065 445.09 245.001C443.636 233.652 440.939 235.921 441.021 232.494C441.768 223.205 447.998 215.902 446.128 205.995C442.889 184.697 425.323 169.465 426.071 146.554C425.201 145.438 423.331 144.819 422.211 145.935C412.622 150.766 399.913 155.72 389.323 149.771C384.838 147.792 378.61 145.935 376.991 140.856C377.613 132.682 386.542 133.964 392.562 130.66C395.262 129.215 397.754 127.152 397.671 126.615C355.066 113.365 327.662 63.2138 276.834 70.768C274.717 70.3959 273.719 68.1665 272.722 66.5563C272.223 63.8329 274.343 61.602 276.212 60.3638C290.412 56.5272 307.605 59.3742 321.433 63.5843C347.842 72.0061 370.386 89.838 394.93 102.592C407.886 108.04 425.701 109.155 437.657 101.724C440.521 99.7034 445.714 101.147 445.714 101.147C447.375 99.9102 449.234 99.4385 451.487 100.238Z" fill="#003366"/>
<path d="M449.313 141.215L452.732 151.673L463.794 151.673L454.844 158.136L458.263 168.595L449.313 162.131L440.364 168.595L443.782 158.136L434.832 151.673L445.895 151.673L449.313 141.215Z" fill="white"/>
<line x1="914" y1="296" x2="6" y2="296" stroke="white" stroke-width="12" stroke-linecap="round" stroke-linejoin="round"/>
<line x1="832" y1="313" x2="88" y2="313" stroke="white" stroke-width="6" stroke-linecap="round" stroke-linejoin="round"/>
<line x1="6" y1="20" x2="914" y2="20" stroke="white" stroke-width="12" stroke-linecap="round" stroke-linejoin="round"/>
<line x1="88" y1="3" x2="832" y2="3" stroke="white" stroke-width="6" stroke-linecap="round" stroke-linejoin="round"/>
</svg>
