<svg width="450" height="449" viewBox="0 0 450 449" fill="none" xmlns="http://www.w3.org/2000/svg">
<path d="M225.1 110C161.5 110 110.2 161.3 110.2 224.9C110.2 288.5 161.5 339.8 225.1 339.8C288.7 339.8 340 288.5 340 224.9C340 161.3 288.7 110 225.1 110ZM225.1 299.6C184 299.6 150.4 266.1 150.4 224.9C150.4 183.7 183.9 150.2 225.1 150.2C266.3 150.2 299.8 183.7 299.8 224.9C299.8 266.1 266.2 299.6 225.1 299.6V299.6ZM371.5 105.3C371.5 120.2 359.5 132.1 344.7 132.1C329.8 132.1 317.9 120.1 317.9 105.3C317.9 90.5 329.9 78.5 344.7 78.5C359.5 78.5 371.5 90.5 371.5 105.3ZM447.6 132.5C445.9 96.6 437.7 64.8 411.4 38.6C385.2 12.4 353.4 4.20001 317.5 2.40001C280.5 0.300012 169.6 0.300012 132.6 2.40001C96.8 4.10001 65 12.3 38.7 38.5C12.4 64.7 4.29999 96.5 2.49999 132.4C0.399988 169.4 0.399988 280.3 2.49999 317.3C4.19999 353.2 12.4 385 38.7 411.2C65 437.4 96.7 445.6 132.6 447.4C169.6 449.5 280.5 449.5 317.5 447.4C353.4 445.7 385.2 437.5 411.4 411.2C437.6 385 445.8 353.2 447.6 317.3C449.7 280.3 449.7 169.5 447.6 132.5V132.5ZM399.8 357C392 376.6 376.9 391.7 357.2 399.6C327.7 411.3 257.7 408.6 225.1 408.6C192.5 408.6 122.4 411.2 93 399.6C73.4 391.8 58.3 376.7 50.4 357C38.7 327.5 41.4 257.5 41.4 224.9C41.4 192.3 38.8 122.2 50.4 92.8C58.2 73.2 73.3 58.1 93 50.2C122.5 38.5 192.5 41.2 225.1 41.2C257.7 41.2 327.8 38.6 357.2 50.2C376.8 58 391.9 73.1 399.8 92.8C411.5 122.3 408.8 192.3 408.8 224.9C408.8 257.5 411.5 327.6 399.8 357Z" fill="white"/>
</svg>
