<svg xmlns="http://www.w3.org/2000/svg" fill="none" viewBox="0 0 1218 618"><path stroke="#000" stroke-linecap="round" stroke-linejoin="round" stroke-width="8" d="M1024.74 569.261L1025.39 570.216L1025.81 571.797L1025.22 572.956L1023.83 573.723L1023.17 574.052L1021.51 572.768L1020.58 571.594L1018.58 571.093L1017.46 571.203L1016.2 571.751L1016.09 572.455L1016.42 574.177L1015.89 575.101L1014.76 575.634L1013.64 575.524L1012.87 575.07L1010.88 573.05L1006.62 570.905L1002.46 567.993L1000.68 567.413L999.949 567.038L999.592 566.912L999.468 567.1L999.422 567.429L999.716 567.664L999.608 569.339L998.738 571.265L997.465 572.048L992.606 572.956L992.591 570.701L991.132 569.903L989.936 569.793L989.626 570.686L990.122 571.375L991.007 571.563L991.132 572.909L989.828 574.303L987.514 575.211L987.219 575.054L987.235 574.444L987.483 573.254L987.204 572.643L986.614 572.486L986.086 572.987L985.434 574.992L983.416 575.994L978.184 574.256L976.104 573.896L976.306 574.96L976.43 576.307L976.244 577.278L975.219 577.246L974.412 576.698L972.642 575.822L969.537 575.806L968.916 576.464L969.025 578.123L969.211 579.548L967.581 579.501L966.091 579.689L964.818 580.55L964.849 581.975L965.951 582.539L966.479 582.179L967.317 581.599L967.177 584.01L966.836 586.093L965.873 588.629L963.979 590.524L962.256 591.072L958.453 591.933L957.413 591.918L956.326 590.9L955.301 590.039L953.764 589.318L950.892 588.034L948.657 588.489L947.586 590.195L946.608 593.624L946.794 595.284L946.437 597.68L944.869 601.093L941.267 602.862L939.715 602.659L938.985 602.126L937.93 599.308L937.464 597.257L936.486 595.926L935.958 595.425L935.477 594.955L933.769 593.405L932.698 591.965L932.62 591.871L931.673 590.602L931.239 589.569L930.726 588.285L930.074 587.612L929.64 587.158L928.211 586.719L926.721 586.516L925.526 586.422L924.423 586.484L923.29 586.688L922.405 587.22L921.039 587.659L920.17 587.737L918.99 587.831H918.447L917.717 587.267L917.096 586.531L916.801 585.748L916.584 584.715L916.397 583.603L916.242 582.57L915.947 581.537L915.435 580.832L914.705 580.159L914.208 579.814L914.007 579.673L911.864 579.83L911.725 579.846L910.343 580.018L909.303 580.159L908.449 580.268L908.185 580.174L907.409 579.908L906.322 579.36L905.67 578.781L904.909 578.076L904.211 577.654L902.55 576.636L901.773 576.056L901.308 575.414L900.935 574.459L900.997 573.849L901.292 573.285L901.805 572.518L902.674 571.657L903.512 570.811L903.574 570.733L904.397 569.981L905.127 569.339L905.67 568.854L906.089 568.071L906.012 567.445L905.546 566.803L904.195 566.787H902.534L899.616 566.771L899.041 566.63L898.017 565.597L897.365 564.971L896.526 564.157L895.719 563.671L894.617 563.483L893.903 563.624L893.204 564.282L893.126 564.438L892.536 565.675L892.009 567.319L891.884 567.68L891.698 569.652L891.683 569.856L891.605 571.077L891.574 571.516L891.543 572.173L891.263 573.442L890.689 574.694L890.161 575.837L889.602 576.636L888.547 577.622L887.351 578.092L885.659 578.28L884.06 578.624L883.129 578.812L882.228 578.969L881.452 579.11L880.738 578.937L880.257 578.702L879.791 578.06L879.186 576.933L878.922 576.166L878.658 575.352L878.316 574.459L877.99 573.598L877.571 572.893L876.748 572.22L875.91 571.688L875.103 571.453L874.171 571.202L873.317 571.046L873.147 571.03L871.951 571.171L870.647 571.923L869.498 572.831L868.971 573.567L868.443 574.24L867.868 574.694L866.968 574.882L866.207 574.741L865.415 574.083L864.732 573.113L864.003 571.766L863.149 569.919L863.056 569.715L862.45 568.118L862.357 567.883L861.519 565.973L861.069 564.939L860.913 564.094L860.758 563.311L860.556 562.403L860.541 562.278L860.417 561.166L860.355 560.461L860.261 559.882L860.044 559.162L859.734 558.363L859.268 557.643L858.724 557.017L858.135 556.61L857.281 556.281L856.473 556.343L855.62 556.625L854.533 557.377L853.539 558.066L853.415 558.16L852.763 558.614L851.94 559.209L851.288 559.6L850.59 559.757L849.891 559.412L849.332 558.99L848.929 558.379L848.773 557.674L848.51 557.33L848.106 557.079L847.718 557.236L847.5 557.486L847.283 558.332L847.268 559.036L847.547 560.947L847.78 561.651L848.665 564.203L848.758 564.454L849.099 565.393L849.208 566.443L849.224 566.583L849.348 567.789L849.286 568.024L849.022 569.12L848.261 570.435L847.206 571.594L845.731 573.379L844.659 574.929L843.852 575.727L843.185 576.385L842.471 576.933L842.067 577.168L841.12 577.309L840.483 577.137L840.002 577.027L839.614 576.651L838.993 575.9L838.434 575.211L837.829 574.459L837.285 574.052L836.649 573.88L835.857 574.005L835.19 574.224L834.476 574.929L833.994 575.712L833.963 576.416L834.072 576.557L834.351 576.98L834.739 577.231L835.314 577.309L836.106 577.325L837.053 577.497L838.062 577.81L838.636 577.982L839.257 578.201L839.63 578.687L839.971 579.266L840.126 580.065L839.909 580.738L839.412 581.208L839.148 581.302L838.543 581.505L837.239 581.834L835.547 582.131L834.289 582.82L833.56 583.588L833.296 584.449L833.358 585.639L833.373 585.889L833.389 586.281L833.435 587.079L833.56 587.486L833.948 588.833L834.413 590.414L834.631 591.745L834.538 593.17L834.289 594.36L833.715 595.613L832.923 596.693L831.852 597.711L830.656 598.447L829.135 598.713L827.396 598.368L825.891 597.946L824.478 597.194L823.081 596.145L821.652 594.344L820.628 592.528L819.696 591.166L819.246 590.524L818.936 589.804L818.951 588.864L819.246 588.05L819.479 587.439L819.324 586.97L819.06 586.406L818.408 585.529L817.865 584.793L817.585 583.948L817.523 582.977L817.538 582.1L817.647 581.161L818.144 580.221L818.796 579.376L819.339 578.937L819.448 578.843L820.178 578.499L821.233 577.998L821.854 577.544L822.522 576.855L822.848 576.072L822.863 575.242L822.46 573.833L821.885 571.844L821.202 569.856L820.814 568.744L820.271 567.554L819.51 566.521L818.423 565.534L817.321 565.033L816.25 564.736L815.225 564.564L814.34 564.798L813.378 565.409L812.353 566.349L811.779 567.351L811.344 568.525L811.251 569.715L810.801 571.124L810.77 571.218L810.382 572.377L809.807 573.081L809.093 573.222L808.301 573.034L806.92 572.674L805.662 571.938L804.451 570.827L804.265 570.654L803.675 570.169L802.977 569.433L802.433 569.026L801.952 569.104L801.704 569.496L801.859 570.044L801.874 570.545L801.905 571.077L801.564 572.408L800.958 573.301L800.555 573.77L800.011 573.958L799.701 573.943L799.359 573.755L799.297 573.269L799.22 572.674L799.142 571.938L798.723 571.547L798.599 571.531L798.164 571.453L797.683 571.844L797.481 572.471L797.45 573.097L797.357 574.678L797.031 575.774L796.612 577.027L795.882 578.201L794.392 579.814L793.491 580.581L791.644 581.255L788.461 581.333L786.645 581.38L784.798 580.988L782.904 580.331L782.065 579.845L781.444 579.047L781.025 578.248L780.854 577.215L780.823 575.962L781.165 574.694L781.584 573.128L781.615 572.972L781.988 571.86L782.081 570.842V569.496L781.864 568.306L781.491 567.272L780.389 566.161L778.929 565.002L777.439 564.329L776.321 563.984L775.219 563.969L774.303 564.11L773.946 564.172L772.502 564.611L771.105 565.253L769.366 566.27L768.156 566.787L767.348 567.006L766.153 567.147L765.206 566.991L765.159 566.975L762.66 567.022L761.744 565.519L761.076 563.64L761.961 557.737L760.595 557.377L759.4 555.404L756.931 553.838L756.869 553.744L755.783 552.805L753.966 552.069L752.616 551.74L751.032 551.583L749.682 551.443L748.471 552.038L747.275 553.008L746.328 554.496L746.22 554.652L745.521 555.842L744.667 557.643L743.208 559.506L742.137 560.258L741.392 560.774L738.535 560.727L737.122 561.166L737.247 561.698L737.681 563.749L736.952 564.642L736.284 564.626L736.098 564.673L735.228 564.376L734.685 564.783L734.312 565.425L734.328 565.941L734.592 566.724L734.576 567.523L734.25 568.337L734.049 568.729H733.567L733.303 568.666H732.869L732.201 568.995L731.534 569.652L731.239 570.576L730.975 570.889L728.708 572.392L727.746 573.144L727.544 573.348L726.333 574.271L724.796 574.757L723.616 575.101L723.445 575.133L722.266 575.352L721.288 575.336L719.952 574.992L718.928 574.678L717.5 573.911L716.165 573.207L714.752 572.205L713.681 571.437L712.656 571.015L711.197 570.467L710.281 570.388L709.334 570.31L708.107 569.95L707.362 569.48L706.462 568.901L706.043 568.4L705.763 567.93L705.266 566.944L705.763 565.221L706.431 565.018L707.983 564.908L709.644 563.89L709.768 561.949L709.194 561.182L707.719 560.681L706.834 560.133L706.85 559.538L707.455 559.021L708.433 558.379L709.365 556.75L710.436 551.959L709.924 551.646L708.666 551.912L707.704 551.364L706.633 549.83L705.158 549.798L704.397 550.143L701.944 550.691L699.041 550.769L698.001 550.754L694.974 550.237L691.357 549.172L690.627 548.843L690.611 548.828L690.549 548.483L690.658 548.327L691.295 548.139L691.419 547.732L691.124 547.074L690.223 546.182L689.416 545.759L688.252 544.021L688.05 543.614L688.159 543.128L688.516 542.893L688.95 542.925L689.432 543.097L689.649 543.504L689.975 543.817L690.363 543.864L690.72 543.661L691.124 543.442L691.403 542.987L691.388 542.643L691.155 542.267L690.767 541.876L689.416 541.234L688.485 540.498L686.994 538.87L686.42 538.134L685.706 536.192L686.466 534.47L689.106 532.152L689.928 528.488L689.835 526.328L688.454 524.277L688.267 524.12L688.252 523.682L687.74 523.071L686.855 522.82L686.699 522.805L684.914 523.29L684.153 524.026L683.688 524.684L682.772 525.576L682.694 525.936L682.166 526.672L681.39 527.94L681.002 528.379L680.179 528.958L679.574 529.459L678.891 529.819L677.354 529.491L675.786 529.365H675.413L673.721 529.24L672.991 528.77L671.594 528.05L670.709 527.424L670.057 527.032L669.033 526.563L668.288 526.766L667.014 527.032L665.974 527.158L664.422 526.891L662.357 526.704L661.643 526.516L660.603 526.375L659.485 525.56L658.818 525.247L657.715 524.684L657.25 524.073L656.737 523.729L655.992 523.635L655.48 523.321L652.127 522.398H650.574L650.109 523.321L649.006 524.277L648.494 525.435L648.525 526.062L648.665 526.406L648.649 526.829L648.277 527.189L647.749 527.173L647.081 527.126L646.15 527.706L646.134 528.41L646.103 530.712L646.088 531.417L645.855 532.168L645.343 532.043L644.784 531.918L644.411 531.98L644.302 532.121L644.287 532.544L644.458 532.998V533.374L644.256 533.969L643.945 534.329L643.681 534.673L643.309 534.845L642.672 535.049L642.191 534.783L641.756 534.611L641.12 534.595L640.111 534.877L639.474 535.534L638.931 536.568L638.031 536.818L637.363 536.677L636.618 536.552L635.966 537.507L635.438 538.071L634.134 538.666L633.466 538.65L633.28 538.415L633.187 537.852L632.861 537.617L632.566 537.319L632.271 537.194L631.712 537.1L631.122 537.053L630.656 536.396V536.067L630.036 535.707L627.583 532.794L627.521 532.716L626.744 531.088L626.651 530.195L626.185 529.35L624.959 529.115L623.966 528.849L623.189 528.426L622.956 528.128L623.003 527.361L623.158 527.064H623.407L623.826 527.314L624.276 527.236L624.462 526.907L624.493 526.516L624.416 526.124L623.95 525.968L623.081 525.999L622.196 525.467L621.528 524.12L620.55 523.275L619.355 522.648L618.159 521.677L617.275 521.239L616.902 521.223L615.676 521.834L613.921 521.803L610.382 520.597L609.093 521.834L606.966 523.4L604.529 525.842L604.017 525.827L602.961 525.404H602.573L601.548 526.109L601.114 526.093L601.052 525.576L600.462 525.263L598.117 525.326L597.776 525.576L597.31 526.985L596.767 527.111L595.013 527.189L594.593 527.001L594.33 525.717L593.74 525.31L591.504 524.433L590.635 523.556L590.293 523.541L589.564 524.042L589.175 523.948L588.57 522.805L587.778 521.865L584.363 520.754L584.115 520.832L583.54 521.552L583.199 521.583L580.885 520.785L580.497 520.91L580.435 521.677L580.42 522.46L580.063 522.836L579.1 522.726L578.308 522.194L578.184 521.63L578.541 520.769L578.557 520.049L578.231 519.611L576.414 519.391L575.157 518.405L573.216 517.763L571.664 516.73L570.344 514.96L567.814 512.361L566.945 511.61L566.199 511.469L565.889 511.531L565.563 511.86L565.547 512.283L565.594 512.862L565.501 513.175L565.066 513.52L564.771 513.598L564.321 513.567L563.933 513.238L563.56 512.627L563.001 510.842L562.458 510.326L561.93 510.106L561.356 510.028L560.223 510.623L559.493 511.359L559.477 511.782L559.741 512.173L558.453 513.128L557.94 513.05L556.993 512.94L555.022 512.502L554.742 512.596L554.385 513.332L554.013 513.943L553.221 514.068L551.622 513.567L551.343 512.878L550.535 512.565L549.495 512.158L548.471 511.829L547.632 512.345L546.747 512.173L545.94 512.158L545.257 512.956L544.295 512.862L544.062 512.784L543.844 512.925L542.432 513.269L541.485 512.69L542.121 511.14L542.168 510.654L541.919 510.247L541.345 510.185L540.274 510.42L539.047 511.844L538.007 512.032L537.34 512.017L536.005 511.61L535.337 511.437L532.977 510.78L532.636 509.95L532.574 508.963L532.605 508.071L532.45 507.758L532.046 505.879L532.139 505.581L532.465 504.078L532.403 503.327L532.186 503.17L531.829 502.779L531.984 502.262L532.294 501.589L532.776 499.96L532.574 499.491L531.534 499.099L530.882 498.786L530.742 498.551L530.509 498.395L530.338 498.003L530.245 496.844L530.307 496.296L529.904 494.23L530.059 493.776L530.773 493.212L531.099 492.664L530.478 491.662L530.167 490.049L530.028 489.705L529.562 489.313L529.019 488.906L528.305 488.562L527.435 487.998L527.063 487.512L526.768 487.121L526.519 486.636L526.535 486.229V485.994L526.38 485.602L526.069 485.117L525.06 484.146L524.361 483.582L523.74 483.019L523.352 482.674L523.182 482.627L522.716 482.064L522.514 481.688V481.093L522.685 480.467L522.778 479.919L522.592 479.402L522.39 479.12L521.846 478.713L521.148 478.368L520.434 478.118L519.89 477.899L519.626 477.852L519.161 477.773L518.788 477.633L518.54 477.366L518.307 476.975L518.105 476.803L517.996 476.724L517.531 476.474L516.646 476.38L516.071 476.286L515.901 476.364L515.093 475.957L514.829 475.832L514.317 475.425L512.19 473.264L510.778 471.73L510.327 471.025L509.924 470.086L509.846 470.023L508.076 468.551L507.875 468.379L507.797 468.316L507.052 468.457L506.167 469.115L505.499 470.039L505.158 470.978L504.971 472.403L505.034 473.342L505.173 473.906L505.437 474.798L505.561 475.049L505.732 475.472L505.841 476.521L505.763 477.132L505.686 477.272L505.344 477.977L504.925 478.807L504.475 479.715L504.257 480.2L504.024 480.842L503.761 481.531L503.621 481.688L503.109 482.267L502.332 482.627L501.401 482.58L499.817 482.706L498.653 482.643L496.511 482.064L495.315 481.516L493.639 480.733L493.22 480.451L492.552 480.169V480.012L491.853 479.59L490.596 478.462L489.23 477.539L488.36 476.646L487.32 476.129L483.796 475.284L482.306 475.503L482.135 475.534L480.847 475.112L480.66 475.065L479.667 474.908L478.596 475.049L478.471 475.08L477.882 475.253L477.804 475.346L477.431 476.255L477.338 476.458L477.198 477.272L476.935 479.089L476.903 479.339L476.609 479.919L476.283 480.654L475.118 482.032L474.373 482.345L473.737 482.674L473.084 482.706L472.727 482.69L472.231 482.659L471.625 482.565L471.268 482.502L470.818 482.33L470.709 482.283L469.638 482.048L469.126 482.032L467.061 481.954L465.555 481.688L465.431 481.657L463.025 481.343L462.404 481.249L462.249 481.202L461.224 480.952L460.991 480.874L459.765 480.263L459.671 480.138L459.314 479.715L458.492 478.494L458.321 478.149L457.933 477.241L457.653 476.568L457.591 476.458L456.706 475.785L455.728 475.331L455.387 475.159L454.409 474.689L453.896 474.423L453.167 473.937L451.785 472.356L446.367 466.985L446.305 466.891L445.451 465.169L444.737 463.744L443.806 462.476L442.641 460.941L441.182 459.172L440.188 458.17L439.241 457.121L438.543 456.041L438.248 455.242L437.937 454.444L437.642 453.88L437.254 453.316L436.556 452.831L435.686 452.345L434.367 451.124L433.668 450.435L432.721 449.903L432.395 449.731L429.663 446.834L427.521 445.769L427.008 445.613L425.89 445.456L425.782 445.44L424.912 445.832L424.726 445.988L423.298 447.131L422.739 447.523L422.491 447.68L421.357 448.337L421.156 448.447L419.929 448.823L418.19 449.104L420.1 367.246L420.628 340.801L420.69 337.043L420.969 325.66L421.078 321.495L421.621 299.026L421.699 293.217L422.382 264.72L422.475 261.197L423.034 233.28L423.624 207.742L424.866 144.219L424.928 140.493L425.502 111.839L405.755 111.354L381.475 110.712L350.116 109.929L328.398 109.193L293.608 108.128L274.373 107.377L200.058 104.245L166.091 102.664L125.526 101.396L9 95.4301L13.6418 9L41.7253 10.5344L43.2933 10.6127L44.0074 10.691L54.9055 11.7401L55.9145 11.8027L58.4916 11.9593L77.6176 12.8048L82.2749 13.0397L85.8455 13.2119L88.5778 13.3841L103.295 14.261L106.928 14.4802L145.894 16.7192L145.971 16.7349L147.865 16.7662L153.392 17.0011L163.063 17.3612L213.176 19.0522L252.872 20.2735L280.614 21.072L297.613 21.4635L340.476 22.8414L413.114 24.8768L415.567 24.9395L427.691 25.19L427.909 25.2056L491.605 26.3173L503.807 26.5052L566.137 27.3194L628.98 28.0709L658.926 28.2745L688.314 28.4154L696.976 28.4468L718.416 28.4937L731.766 28.5094L768.606 28.4937L778.712 28.4624L815.256 28.4311L822.32 28.2902L838.605 28.2746L852.453 28.1493L876.717 27.8988L902 27.5L905.981 27.382L907.781 27.3664L938.768 26.9593L941.95 26.9123L946.81 26.8497L948.083 26.8027L964.647 26.5365L967.674 26.5522L980.73 26.3486L984.316 26.2547H985.136L985.729 26.2234L990.774 26.0981L1010.02 25.738L1012.29 25.691L1046.6 24.8611L1062.5 24.5167H1063.65L1108.98 23.6555L1114.38 23.4207L1171.59 21.5574L1172.8 62.1263L1173.46 78.833L1173.46 78.9739L1174.51 108.692L1179.1 135.827L1181.35 148.165L1183.45 160.597L1184.15 164.778L1185.56 173.108L1189 193.259L1189.66 197.283L1195.76 235.55L1195.91 236.49L1197.09 243.285L1198.92 253.995L1199.51 257.361L1200.07 260.634L1201.05 266.427L1203.24 279.25L1203.27 279.485L1206.31 296.098L1206.97 298.603L1206.73 301.938L1206.76 302.987L1206.86 303.52L1206.98 304.491L1207.29 379.678L1207.56 415.3L1207.2 418.572V418.901L1207.25 420.482V420.795L1207.26 421.109L1207.29 425.211L1207.39 434.23V439.256L1207.37 446.239L1207.39 450.874V451.578L1207.4 453.943L1208.04 508.995L1208.46 551.85V552.272L1208.52 557.533L1208.74 582.288L1209 604.318L1208.83 606.15L1208.75 606.636L1208.46 606.918L1207.8 607.372L1207.2 607.763L1204.19 608.796L1203.36 609L1202.73 608.749L1202.17 607.904L1202.37 606.902L1202.73 606.37L1203.38 605.978L1204.28 605.414L1204.23 604.647L1202.96 604.428L1202.14 604.585L1201.42 605.086L1200.94 605.665L1200.28 606.354L1199.38 607.043L1198.15 607.168L1197.05 607.011L1196.94 606.542L1197.03 605.18L1197.81 604.678L1198.8 604.412L1199.69 604.021L1200.35 603.222L1200.55 602.392L1200.34 601.375L1199.87 601.359L1199.28 601.343L1198.35 601.735L1197.05 602.784L1196.36 603.614L1195.59 604.193L1194.24 604.209L1194.25 603.958L1194.58 602.784L1195.35 602.111L1195.93 601.03L1195.39 598.431L1194.07 597.085L1193.48 597.178L1193.65 597.836L1193.86 598.384L1193.91 598.807L1193.63 600.326L1193.27 600.67L1192.45 601.062L1191.69 600.921L1190.77 599.934L1190.57 599.042L1190.18 598.321L1189.42 597.82L1188.43 597.727L1188.14 598.024L1188 598.901L1187.81 599.543L1187.5 600.373L1186.89 600.936L1184.64 601.641L1183.94 601.672L1183.18 601.531L1182.44 600.921L1182.34 600.326L1182.59 599.856L1183.25 599.23L1184.18 599.433L1185.22 600.059L1185.99 599.433L1186.92 595.253L1186.12 594.517L1185.59 594.564L1182.33 596.176L1181.51 596.615L1179.89 597.57L1176.83 597.304L1176.2 596.834L1176.14 596.443L1176.62 595.863L1177.53 595.613L1177.89 594.877L1177.49 594.297L1175.25 593.029L1173.71 592.466L1172.8 592.544L1173 593.53L1174.47 594.423L1175.09 594.642L1175.17 595.644L1175.03 596.223L1174.46 596.865H1173.4L1172.72 596.756L1172.29 595.253L1171.21 594.642L1170.07 594.579L1169.6 594.266L1169.3 593.53L1169.2 592.622L1171 591.056L1170.44 589.428L1169.58 589.851L1169.02 590.477L1168.23 590.681L1167.32 590.555L1165.44 589.804L1165.92 588.489L1166.77 588.066L1167.74 587.753L1169.38 587.064L1169.51 586.046L1169.32 585.059L1168.23 584.48H1167.52L1166.87 584.919L1166.25 585.654L1165.62 586.156L1165.04 587.518L1164.77 587.972L1163.82 588.614L1163.2 588.896L1162.94 588.786L1162.47 588.504L1162.21 588.285L1162.29 587.909V586.86L1160.91 584.261L1160.07 583.666L1159.34 583.76L1158.79 585.106L1158.75 586.891L1159.17 587.659L1159.29 588.066L1159.28 588.473L1159.14 588.645L1158.93 588.708L1156.12 588.833L1153.72 588.128L1153.28 587.768L1152.35 586.782L1152.58 586.281L1152.34 585.185L1150.74 584.277L1148.52 583.134L1147.79 582.883L1147.12 582.523L1146.16 581.004L1145.57 579.736L1146 578.311L1146.61 577.09L1147.01 575.634L1146.75 574.992L1146.48 574.647L1145.82 574.005L1145.43 573.755L1144.82 573.692L1144.99 575.399L1144.79 576.401V576.777L1143.53 577.513L1142.63 577.716L1141.86 577.513L1141.21 576.808L1140.94 575.9L1139.45 572.659L1139.14 572.299L1139.17 571.704L1138.72 568.666L1138.29 568.118L1137.71 568.212L1136.78 569.621L1134.9 569.371L1134.89 569.277L1134.59 568.776L1134.23 568.306L1133.82 567.82L1132.87 567.633L1132.45 567.805L1131.69 568.447L1130.34 568.854L1129.36 568.525L1128.55 567.398L1126.35 566.098L1125.51 565.456L1125.48 564.611L1125.68 563.186V562.325L1125.45 561.871L1125.25 561.636L1125.15 561.401L1125.04 561.276L1124.44 561.213L1124.39 561.182L1123.57 560.962L1123.01 560.524L1122.95 560.994L1123 561.338L1123.27 561.886L1123.9 563.06L1123.4 564.611L1122.61 564.908L1122.17 564.752L1120.01 563.749L1119.6 562.372L1119.84 562.262L1120.51 561.636L1121.3 561.088L1122.39 560.227L1122.48 559.491L1122.33 558.817L1122.14 558.426L1121.54 558.254L1120.59 558.363L1119.95 558.802L1119.27 559.71L1117.39 560.931L1115.81 560.994L1115.62 560.759L1115.95 559.804L1116.68 557.847L1116.51 556.923L1115.89 556.062L1114.5 555.701L1112.67 555.78L1111.29 555.811L1110.53 555.827L1109.78 555.701L1109.19 555.326L1108.98 555.106L1108.65 554.762L1107.8 554.026L1106.15 553.274L1103.56 552.46L1102.13 552.069L1101.17 551.975L1100.61 552.194L1100.3 552.648L1100.21 553.196L1099.46 554.23L1099.07 554.762L1098.36 555.498L1097.94 555.936L1097.61 556.484L1097.46 557.095L1097.52 557.753L1097.66 558.614L1097.83 559.303L1098.03 560.195L1097.99 561.291L1097.81 562.231L1097.55 563.17L1097.29 563.796L1096.7 564.454L1096 564.798L1095.56 564.877L1095.55 562.669V561.213L1095.1 560.493L1094.06 560.665L1094.01 560.743L1093.87 560.79L1093.7 561.338L1093.59 561.636L1093.22 562.09L1092.91 563.28L1093.31 564.063L1093.58 564.83L1093.61 565.44L1093.62 566.098L1093.65 566.646L1093.25 567.069L1092.92 567.241L1092.04 567.539L1091.02 567.523L1090.46 567.194L1089.68 566.724L1089.06 566.223L1088.81 565.973L1088.38 565.722L1087.57 564.924L1086.47 564.642L1085.92 564.939L1085.95 566.662L1085.6 567.445L1084.63 567.57L1080.89 568.259L1079.92 568.462L1077.38 568.744L1074.59 568.916L1070.69 568.509L1069.56 568.368L1068.6 568.29L1068.33 568.008L1068.4 566.756L1068.35 566.035L1068.05 565.644L1067.28 565.519L1066.08 566.255L1065.34 566.881L1063.32 567.758L1061.52 567.711L1061.16 567.257L1061.41 564.611L1061.02 563.937L1060.42 564.031L1059.8 564.454L1058.74 565.863L1057.72 566.63L1057.17 566.85L1057.02 566.975L1056.29 567.116L1055.67 566.959L1055.26 566.552L1054.89 565.754L1054.58 565.127L1054.5 564.407L1054.67 563.624L1054.69 563.139L1054.84 561.886L1054.22 560.164L1053.28 558.379L1052.62 558.238L1052.53 558.144L1051.74 558.034L1049.92 557.721L1049.39 557.533L1048.31 556.531L1047.95 556.516L1047.59 558.019L1047 559.021L1045.76 559.976L1044.02 560.555L1043.48 561.698L1042.73 562.497L1042.13 562.763L1038.48 562.559L1037.22 563.139L1036.18 563.749L1035.07 565.378L1033.59 566.677L1031.56 566.787L1029.97 565.55L1027.66 564.814H1027.63L1027.57 564.798L1026.68 564.845L1025.64 565.456L1024.83 566.129L1024.34 567.319L1024.4 568.415L1024.68 569.073"/></svg>